<?xml version="1.0" encoding="utf-8"?>
<!-- Generator: Adobe Illustrator 23.0.1, SVG Export Plug-In . SVG Version: 6.00 Build 0)  -->
<svg version="1.1" id="Layer_1" xmlns="http://www.w3.org/2000/svg" xmlns:xlink="http://www.w3.org/1999/xlink" x="0px" y="0px"
	 viewBox="0 0 586.4 408.7" style="enable-background:new 0 0 586.4 408.7;" xml:space="preserve">
<style type="text/css">
	.st0{fill:#FFFFFF;}
	.st1{fill:#1F74BD;}
	.st2{fill:url(#SVGID_1_);}
	.st3{fill:url(#SVGID_2_);}
	.st4{fill:url(#SVGID_3_);}
	.st5{fill:url(#SVGID_4_);}
	.st6{fill:url(#SVGID_5_);}
	.st7{fill:url(#SVGID_6_);}
	.st8{fill:url(#SVGID_7_);}
	.st9{fill:url(#SVGID_8_);}
	.st10{fill:url(#SVGID_9_);}
	.st11{fill:url(#SVGID_10_);}
	.st12{fill:url(#SVGID_11_);}
	.st13{fill:url(#SVGID_12_);}
	.st14{fill:url(#SVGID_13_);}
	.st15{fill:url(#SVGID_14_);}
	.st16{fill:url(#SVGID_15_);}
</style>
<title>logo-medlang.7</title>
<path class="st0" d="M243.4,159.6c-0.4-24.4-11.2-47.5-32.6-64.8c-23.4-19-50.3-23.9-79.3-16.1c-33.8,9-60.1,40.6-63.3,75.4
	c-1.4,15.9,1.5,31.8,8.4,46.2c6.6,14.3,14.4,28,21.4,42c2.1,4.4,3.9,9,5.2,13.7c1.6,5.6,4.9,8.3,9.9,7.5s8-5.1,6.6-10.8
	c-1.2-5.3-3-10.5-5.4-15.4c-7.1-14.3-14.8-28.3-21.8-42.6c-17.7-34.7-3.9-77.2,30.9-94.9c6.5-3.3,13.4-5.6,20.5-6.7
	c34.7-6.1,69.4,15.2,79.8,48.9c5.6,18.2,3.3,35.9-4.6,52.7c-6.9,14.5-14.9,28.5-22,42.9c-2.4,5.2-4.2,10.6-5.3,16.2
	c-1.1,5.2,1.9,9,6.5,9.8s8.4-2,10-7.1c1.5-5,3.3-9.9,5.5-14.6c5.8-11.6,12.2-22.8,17.9-34.4C238.5,193.3,243.4,178.6,243.4,159.6z
	 M155.3,336.8c16.2,0.8,32.2-3.7,45.5-13c4.3-2.9,5.4-7.4,2.9-11.5c-2.7-4.3-7.1-5.3-11.8-2.6c-3.1,2.1-6.4,3.9-9.8,5.4
	c-21,8.3-41.4,7.6-61-4.2c-1.7-1.2-3.7-2.1-5.7-2.6c-3.8-0.8-7.5,1.7-8.8,5.3c-1.4,3.9,0,7.8,3.7,10.3
	C124,332.8,138.9,337.6,155.3,336.8L155.3,336.8z M155,308.1c17,0.1,32.2-4,45.7-13.4c4.6-3.2,5.6-7.8,2.6-12.1
	c-2.7-3.9-7.3-4.3-12.1-1.8c-5.8,3.1-11.7,6.6-18,8.2c-18.7,4.8-36.7,2.8-53.3-8c-4.8-3.1-9.9-2.2-12.6,1.9s-1.2,9,3.6,12.2
	C123.9,303.8,139.3,308.4,155,308.1L155,308.1z"/>
<path class="st1" d="M243.2,159.6c0,19.1-4.9,33.7-11.8,47.7c-5.7,11.6-12.1,22.8-17.9,34.4c-2.2,4.7-4,9.6-5.5,14.6
	c-1.6,5.1-5.2,8-10,7.1c-4.6-0.8-7.6-4.6-6.5-9.8c1.1-5.6,2.9-11,5.3-16.2c7.1-14.4,15.1-28.4,22-42.9c8-16.8,10.3-34.5,4.6-52.7
	c-10.4-33.7-45.1-55-79.8-48.9c-33.9,5.7-58.8,34.9-59.1,69.3c0,11.3,2.6,22.4,7.7,32.4c7,14.3,14.7,28.3,21.8,42.6
	c2.3,4.9,4.1,10.1,5.4,15.4c1.4,5.7-1.5,9.9-6.6,10.8s-8.2-1.8-9.9-7.5c-1.3-4.7-3-9.3-5.2-13.7c-7-14.1-14.8-27.8-21.4-42
	c-6.7-14.5-9.9-30-8.4-46.2c3.2-34.8,29.5-66.4,63.3-75.4c29.1-7.7,55.9-2.8,79.3,16.1C232.1,112.1,242.8,135.1,243.2,159.6z"/>
<radialGradient id="SVGID_1_" cx="103.51" cy="1109.7397" r="43.1" gradientTransform="matrix(1 0 0 1 0 -994.3398)" gradientUnits="userSpaceOnUse">
	<stop  offset="0.11" style="stop-color:#EBEBEB"/>
	<stop  offset="0.19" style="stop-color:#BBCFE0"/>
	<stop  offset="0.28" style="stop-color:#92B7D7"/>
	<stop  offset="0.38" style="stop-color:#6EA2CF"/>
	<stop  offset="0.48" style="stop-color:#5291C8"/>
	<stop  offset="0.58" style="stop-color:#3B84C3"/>
	<stop  offset="0.69" style="stop-color:#2B7BC0"/>
	<stop  offset="0.82" style="stop-color:#2276BE"/>
</radialGradient>
<path class="st2" d="M106.7,128.3c4.5-6.8,11.1-12,18.7-15c2.8-1.1,5.3-0.3,6.3,2.1s-0.1,4.9-2.9,6c-9.7,3.8-15.9,10.9-19.4,20.4
	c-1.2,3.2-1.4,6.7-1.8,10.2c-0.3,2.8-1.9,4.7-4.4,4.7c-2.7,0-4.4-1.8-4.4-4.7C98.8,143.4,101.6,135.1,106.7,128.3z"/>
<path class="st1" d="M199.7,298.4h-83.4c-4.2,0-7.6-3.4-7.6-7.6l0,0l0,0c0-4.2,3.4-7.6,7.6-7.6c0,0,0,0,0,0h83.4
	c4.2,0,7.6,3.4,7.6,7.6l0,0l0,0C207.3,295,203.9,298.4,199.7,298.4L199.7,298.4z"/>
<g>
	
		<linearGradient id="SVGID_2_" gradientUnits="userSpaceOnUse" x1="262.565" y1="1933.286" x2="262.565" y2="1987.131" gradientTransform="matrix(1 0 0 -1 0 2221.8896)">
		<stop  offset="0" style="stop-color:#1F74BD"/>
		<stop  offset="7.000000e-02" style="stop-color:#297EBE"/>
		<stop  offset="0.26" style="stop-color:#4095C1"/>
		<stop  offset="0.47" style="stop-color:#50A6C3"/>
		<stop  offset="0.71" style="stop-color:#5AB0C4"/>
		<stop  offset="1" style="stop-color:#5DB3C4"/>
	</linearGradient>
	<path class="st3" d="M242.4,234.8c2.8,0,5.3,1.5,7.4,4.5c2.6,4.1,4.9,8.5,6.9,12.9l5.5,11.7l0.8,1.3c0.4,0,2.5-4.1,6.2-12.3
		s6-12.9,6.7-14c1.5-2.5,4-3.7,7.3-3.7c0.9,0.2,1.8,0.6,2.6,1.1c1.3,0.9,2.2,2.2,2.5,3.7c0.5,1.7,0.8,5.2,0.8,10.4v9.8L289,266v13.2
		l0.1,5.4c0,1-0.3,2-0.9,2.8c-0.6,0.8-1.6,1.2-2.6,1.2c-1.1,0-2.2-0.4-3.1-1.2c-0.9-0.8-1.5-1.8-1.9-2.9c-0.4-1.2-0.6-5.3-0.6-12.4
		l-0.1-3.9v-3.9c0-7.5-0.3-11.2-0.9-11.2s-2.6,3.8-5.9,11.4s-5.3,11.9-5.9,13c-0.8,1.5-2.4,2.4-4.1,2.4c-1.6,0.1-3.2-0.6-4.2-1.9
		c-0.5-0.7-2.5-4.9-6-12.8s-5.6-11.8-6.2-11.8s-1.2,3.9-1.8,11.7c-0.2,2.9-0.4,6.1-0.4,9.5s-0.2,5.9-0.4,7.4
		c-0.2,1.4-0.7,2.7-1.5,3.9c-0.6,1-1.7,1.7-2.9,1.7c-0.8,0.1-1.7-0.1-2.4-0.5c-0.8-0.6-1.3-1.9-1.3-3.9l1.3-35.9v-1.9l-0.1-3.7
		c-0.1-1.6,0.3-3.1,1-4.5C239,235.7,240.7,234.7,242.4,234.8z"/>
	
		<linearGradient id="SVGID_3_" gradientUnits="userSpaceOnUse" x1="315.8" y1="1931.7288" x2="315.8" y2="1973.1354" gradientTransform="matrix(1 0 0 -1 0 2221.8896)">
		<stop  offset="0" style="stop-color:#1F74BD"/>
		<stop  offset="7.000000e-02" style="stop-color:#297EBE"/>
		<stop  offset="0.26" style="stop-color:#4095C1"/>
		<stop  offset="0.47" style="stop-color:#50A6C3"/>
		<stop  offset="0.71" style="stop-color:#5AB0C4"/>
		<stop  offset="1" style="stop-color:#5DB3C4"/>
	</linearGradient>
	<path class="st4" d="M321.1,272.1c-8.5,0-12.7,0.9-12.7,2.7c-0.1,2.1,0.8,4.1,2.5,5.4c1.8,1.4,4,2.1,6.3,2c2.5,0,4.9-0.3,7.3-1
		c1.5-0.5,3.1-0.9,4.7-1c0.8,0,1.6,0.4,2.1,1c0.6,0.9,0.9,1.9,0.8,3c0,1.3-1.4,2.7-4.3,4c-2.8,1.3-5.8,2-8.9,2H316
		c-2.5-0.1-4.9-0.5-7.2-1.4c-4.6-1.5-8.2-5.1-9.6-9.8c-0.8-2.6-1.2-5.3-1.2-8v-1.9c0-9.6,3.4-15.9,10.2-18.7
		c2.7-1.1,5.7-1.7,8.6-1.6c5.4,0,9.6,1.4,12.4,4.1c2.7,3.1,4.2,6.9,4.4,11v2.6c0,2.3-0.8,3.7-2.4,4.4S326.2,272.1,321.1,272.1z
		 M324.4,263.5v-0.7c0.1-1.9-0.7-3.7-2.1-4.9c-1.4-1.2-3.2-1.8-5-1.8h-1c-4.3-0.1-7.9,3.4-8,7.7c0,0.1,0,0.2,0,0.3v0.6
		c0,0.7,0.9,1.1,2.6,1.1h2.2l8.3-0.4l0.9-0.1C323.7,265.3,324.4,264.7,324.4,263.5z"/>
	
		<linearGradient id="SVGID_4_" gradientUnits="userSpaceOnUse" x1="358.98" y1="1932.2898" x2="358.98" y2="1990.4969" gradientTransform="matrix(1 0 0 -1 0 2221.8896)">
		<stop  offset="0" style="stop-color:#1F74BD"/>
		<stop  offset="7.000000e-02" style="stop-color:#297EBE"/>
		<stop  offset="0.26" style="stop-color:#4095C1"/>
		<stop  offset="0.47" style="stop-color:#50A6C3"/>
		<stop  offset="0.71" style="stop-color:#5AB0C4"/>
		<stop  offset="1" style="stop-color:#5DB3C4"/>
	</linearGradient>
	<path class="st5" d="M376.9,284L376.9,284c0,3.1-1.6,4.6-4.8,4.6c-1,0.1-1.9,0-2.8-0.4c-0.4-0.3-0.9-0.8-1.2-1.2
		c-0.4-0.5-0.7-0.7-1-0.7c-0.6,0.2-1.2,0.5-1.7,0.8c-2.5,1.6-5.4,2.4-8.3,2.5h-0.9c-4.7,0-8.4-1.6-11.1-4.7s-4.1-7.6-4.1-13.3v-1.9
		c0-3.1,0.5-6.2,1.4-9.1c1.5-5,4.3-8.4,8.3-10.4c1.8-0.9,3.9-1.4,5.9-1.4c1.7,0,3.4,0.2,5.1,0.5c0.9,0.2,1.7,0.4,2.6,0.5
		c0.9,0,1.4-0.6,1.7-1.7c0.6-2.9,1-5.8,0.9-8.7c0-3.4,0.3-5.5,1-6.5c0.7-1,1.9-1.6,3.1-1.5h1.7c1.8,0,3,0.4,3.5,1.2
		c0.4,1.1,0.5,2.2,0.4,3.3V268l0.1,7.2v8.8H376.9z M350.2,268.7v1.3c0,4,0.6,6.9,1.8,8.7c1.6,2.5,3.5,3.7,5.9,3.7h1.5
		c2.6,0.1,5.1-1.3,6.4-3.6c0.8-1.4,1.3-4.1,1.3-8.1v-4.3c0-3.8-0.5-6.4-1.5-7.6c-1.4-1.9-3.6-2.8-6.4-2.8h-0.4
		C353,255.9,350.2,260.1,350.2,268.7L350.2,268.7z"/>
	
		<linearGradient id="SVGID_5_" gradientUnits="userSpaceOnUse" x1="428.8337" y1="-530.0602" x2="428.8337" y2="-586.2502" gradientTransform="matrix(1 0 0 1 0 819.6603)">
		<stop  offset="0" style="stop-color:#1F74BD"/>
		<stop  offset="7.000000e-02" style="stop-color:#297EBE"/>
		<stop  offset="0.26" style="stop-color:#4095C1"/>
		<stop  offset="0.47" style="stop-color:#50A6C3"/>
		<stop  offset="0.71" style="stop-color:#5AB0C4"/>
		<stop  offset="1" style="stop-color:#5DB3C4"/>
	</linearGradient>
	<path class="st6" d="M411.1,236c-0.1-0.7,0.2-1.4,0.6-2c0.4-0.4,1.8-0.6,4.4-0.6s4.1,0.8,4.5,2.4c0.6,2,0.8,9.4,0.8,22
		s0.5,19.8,1.4,21.5c0.5,0.9,1.6,1.5,3.3,1.7s5.1,0.3,10.2,0.3s8,0.2,8.6,0.5c1.1,0.6,1.6,1.9,1.6,4v0.9c0.1,0.8-0.1,1.7-0.6,2.4
		c-0.4,0.4-1.5,0.6-3.2,0.6h-9l-4.6-0.1c-7.7,0-12.2-0.1-13.6-0.3c-1.3-0.1-2.4-0.8-3.1-1.9c-0.6-1.1-1-10.1-1-27.1l-0.1-5.3v-12
		l-0.1-2.6C411.1,238.3,411.1,237,411.1,236z"/>
	
		<linearGradient id="SVGID_6_" gradientUnits="userSpaceOnUse" x1="468.6176" y1="1932.1298" x2="468.6176" y2="1973.9388" gradientTransform="matrix(1 0 0 -1 0 2221.8896)">
		<stop  offset="0" style="stop-color:#1F74BD"/>
		<stop  offset="7.000000e-02" style="stop-color:#297EBE"/>
		<stop  offset="0.26" style="stop-color:#4095C1"/>
		<stop  offset="0.47" style="stop-color:#50A6C3"/>
		<stop  offset="0.71" style="stop-color:#5AB0C4"/>
		<stop  offset="1" style="stop-color:#5DB3C4"/>
	</linearGradient>
	<path class="st7" d="M475.4,261.8c0-3.9-2.4-5.8-7.3-5.8c-2.3,0.1-4.5,0.4-6.7,1c-1.7,0.5-3.4,0.8-5.1,1c-0.8,0-1.5-0.4-1.9-1.1
		c-0.6-0.8-0.9-1.7-0.9-2.7c0-1.8,1-3.1,3.1-4.1c3.3-1.5,7-2.2,10.6-2.1h1c6.7,0,11.5,1.9,14.4,5.7c1.1,1.6,1.9,3.4,2.2,5.3
		c0.4,3.5,0.6,7.1,0.5,10.6c-0.1,3.5,0.1,7.1,0.5,10.6c0.3,1.7,0.5,3.4,0.5,5.1c0.1,1.1-0.2,2.1-0.8,3c-0.5,0.6-1.7,0.9-3.4,0.9
		c-1.2,0.1-2.4-0.1-3.6-0.5c-0.7-0.3-1.3-0.8-1.8-1.3c-0.6-0.5-1-0.8-1.4-0.8c-1.5,0.4-3.1,0.9-4.5,1.6c-2.2,1-4.5,1.5-6.9,1.6H463
		c-3.8,0-6.7-1.1-8.9-3.4c-2.1-2.2-3.3-5.2-3.2-8.3v-1.9c0-1.7,0.5-3.3,1.3-4.7c2.3-4.4,8-6.7,17.1-7.1c3.2-0.1,4.9-0.3,5.4-0.6
		C475.2,263.2,475.5,262.5,475.4,261.8z M461.1,277.6c0,1.4,0.8,2.6,2,3.3c1.3,0.9,2.8,1.3,4.3,1.3h1.1c2.4,0.1,4.7-1,6.2-2.9
		c0.7-0.8,1-2.5,1-5.1v-1.5c0-1.7-0.9-2.5-2.6-2.5h-3.2c-2.3-0.1-4.6,0.4-6.7,1.5c-1.3,0.7-2.2,2-2.3,3.5v1.5
		C461.1,276.9,461.1,277.2,461.1,277.6z"/>
	
		<linearGradient id="SVGID_7_" gradientUnits="userSpaceOnUse" x1="513.732" y1="1932.8298" x2="513.732" y2="1971.9298" gradientTransform="matrix(1 0 0 -1 0 2221.8896)">
		<stop  offset="0" style="stop-color:#1F74BD"/>
		<stop  offset="7.000000e-02" style="stop-color:#297EBE"/>
		<stop  offset="0.26" style="stop-color:#4095C1"/>
		<stop  offset="0.47" style="stop-color:#50A6C3"/>
		<stop  offset="0.71" style="stop-color:#5AB0C4"/>
		<stop  offset="1" style="stop-color:#5DB3C4"/>
	</linearGradient>
	<path class="st8" d="M496.5,255.6c-0.1-1.4,0.1-2.9,0.6-4.2c0.4-0.7,1.5-1.1,3.2-1.1c1.3-0.1,2.7,0.2,3.8,0.9
		c0.4,0.4,0.8,0.8,1.1,1.2c0.6,0.7,1,1,1.4,1c0.8-0.2,1.5-0.5,2.2-0.9c2.3-1.5,4.9-2.3,7.6-2.5h2c1.9,0,3.7,0.4,5.4,1.2
		c3.3,1.6,5.6,4.6,6.3,8.2c0.5,2.7,0.7,5.5,0.6,8.3l0.3,9.9l0.4,7.8c0.1,0.9-0.1,1.7-0.7,2.4c-1,0.6-2.2,0.8-3.4,0.7
		c-2.7,0-4.3-1-4.8-3.1c-0.5-3.9-0.8-7.9-0.9-11.8c-0.3-6.5-0.7-10.6-1.3-12.2c-1.6-2.2-3.9-3.8-6.5-4.6c-3.2,0-5.4,1.1-6.7,3.4
		c-1,1.7-1.5,5-1.5,10l-0.1,3.2l-0.1,4.3c0,5.1-0.2,8.1-0.5,9c-0.6,1.6-2.3,2.4-5,2.4c-1.7,0-2.7-0.3-3.2-0.8
		c-0.6-0.8-0.8-1.7-0.7-2.7v-4.1l0.2-6.3v-10.4l0.1-5.1v-4.1L496.5,255.6z"/>
	
		<linearGradient id="SVGID_8_" gradientUnits="userSpaceOnUse" x1="557.7501" y1="1915.8892" x2="557.7501" y2="1971.7897" gradientTransform="matrix(1 0 0 -1 0 2221.8896)">
		<stop  offset="0" style="stop-color:#1F74BD"/>
		<stop  offset="7.000000e-02" style="stop-color:#297EBE"/>
		<stop  offset="0.26" style="stop-color:#4095C1"/>
		<stop  offset="0.47" style="stop-color:#50A6C3"/>
		<stop  offset="0.71" style="stop-color:#5AB0C4"/>
		<stop  offset="1" style="stop-color:#5DB3C4"/>
	</linearGradient>
	<path class="st9" d="M575.2,288.4c0,8.4-3.7,13.8-11,16.3c-2.7,0.9-5.4,1.3-8.2,1.3h-1.1c-2.9,0-5.7-0.5-8.4-1.6
		c-2.7-1-4-2.2-4-3.5c0-1.2,0.3-2.3,0.9-3.3c0.6-0.9,1.6-1.4,2.7-1.4c1.2,0.2,2.5,0.4,3.7,0.7c2,0.5,4,0.7,6.1,0.7
		c3.3,0,5.6-0.7,7-2.2s2.1-3.6,2.1-6.5c0-0.9-0.3-1.4-0.8-1.4l-2.9,0.9c-1.8,0.5-3.7,0.7-5.6,0.7c-2.2,0-4.3-0.4-6.3-1.3
		c-2-0.7-3.8-1.9-5.2-3.5c-2.8-3-4.1-7.5-4.1-13.5v-2.5c0-2.7,0.4-5.3,1.2-7.9c0.6-2.1,1.5-4.2,2.7-6c2.2-2.9,5.5-4.3,10-4.3h1.1
		c1.7,0,3.5,0.3,5.1,0.9l2,0.6c1,0.3,2,0.6,3,0.8c0.8-0.1,1.5-0.3,2.2-0.6c1.2-0.4,2.4-0.6,3.7-0.6c2.1,0,3.4,1,3.7,3
		c0.1,0.6,0.2,3.4,0.2,8.3v15.1l0.4,9.5v1.3L575.2,288.4z M548.9,272.8c-0.2,2.7,0.6,5.4,2.2,7.6c1.4,1.9,3.7,3,6.1,2.9h0.7
		c2.4,0.1,4.7-0.9,6.3-2.7c1-1,1.5-2.9,1.5-5.6c0.1-0.4,0.1-0.7,0.1-1.1l0.1-1.9v-4.1c-0.1-0.4-0.1-0.7-0.1-1.1
		c0-3.1-0.6-5.3-1.7-6.7s-3-2-5.5-2h-0.8c-2.5-0.1-4.9,0.9-6.5,2.8c-1.7,2.2-2.6,4.9-2.4,7.7l-0.1,0.8v1.6
		C548.8,271.6,548.9,272.3,548.9,272.8L548.9,272.8z"/>
</g>
<path class="st1" d="M199.5,329.1h-83.4c-4.2,0-7.6-3.4-7.6-7.6l0,0l0,0c0-4.2,3.4-7.6,7.6-7.6c0,0,0,0,0,0h83.4
	c4.2,0,7.6,3.4,7.6,7.6l0,0l0,0C207.1,325.7,203.7,329.1,199.5,329.1L199.5,329.1z"/>
<path class="st1" d="M124.6,393.2v-59.5c0-0.8,0.7-1.5,1.6-1.5c0,0,0.1,0,0.1,0c11.6,1.4,12.4,0.1,17.9,0.2c0.9,0,1.6,0.7,1.6,1.6
	c0,0,0,0,0,0v59.6c0,5.8-4.7,10.6-10.6,10.6c-0.2,0-0.5,0-0.7,0C128.9,403.6,124.6,398.8,124.6,393.2z"/>
<linearGradient id="SVGID_9_" gradientUnits="userSpaceOnUse" x1="134.93" y1="1817.7297" x2="134.93" y2="1933.5297" gradientTransform="matrix(1 0 0 -1 0 2221.8896)">
	<stop  offset="0" style="stop-color:#033333"/>
	<stop  offset="9.000000e-02" style="stop-color:#073D49"/>
	<stop  offset="0.29" style="stop-color:#105172"/>
	<stop  offset="0.49" style="stop-color:#166093"/>
	<stop  offset="0.67" style="stop-color:#1B6BAA"/>
	<stop  offset="0.85" style="stop-color:#1E72B8"/>
	<stop  offset="1" style="stop-color:#1F74BD"/>
</linearGradient>
<path class="st10" d="M134.9,404.2L134.9,404.2c-6,0-10.8-4.8-10.8-10.8v-94.2c0-6,4.8-10.8,10.8-10.8l0,0c6,0,10.8,4.8,10.8,10.8
	v94.2C145.8,399.3,141,404.1,134.9,404.2C135,404.2,135,404.2,134.9,404.2z"/>
<path class="st0" d="M130.9,187.3c0.3,1.8-0.5,3.6-1.9,4.7c-0.2,0.2-7.6-3.3-7.6-3.6c-0.1-2,1.1-3.9,2.9-4.7
	C124.4,183.8,130.9,187.2,130.9,187.3z"/>
<path class="st0" d="M183.3,205.5c-0.1,0.4-3.5,1.5-5.5,0.1c0.1-2.7-0.1-5.4-0.6-8.1c0-0.1,0.2-0.2,0.4-0.3c1.4-1,3.2-1.2,4.7-0.4
	C182.6,196.8,183.6,204,183.3,205.5z"/>
<path class="st1" d="M172.7,146.3h5.7c1,0.4,1.6,1.4,1.4,2.5c-0.1,1.8,0,3.7,0,5.5h6.3c1.2,0,1.6,0.4,1.7,1.6v7.1h5.6
	c1.8,0,2.7,0.8,2.7,2.6c0.1,6.9,0.3,13.9,0.4,20.8c0.1,9.2,0.2,18.3,0.2,27.5c0,2.2-1.2,3.5-3.4,3.5c-6.3,0-12.6,0.1-19,0
	c-3.5-0.1-7,1.3-9.3,4c-1.2,1.3-2.7,2.3-4.4,2.8c-3.7,1.2-7.8,0.1-10.4-2.8c-2.6-2.7-6.2-4.2-9.9-4.1c-6,0.1-12,0-18,0
	c-1.9,0-3.2-0.6-3.9-2.4V200c0.1-0.2,0.2-0.5,0.2-0.7l0.6-33.6c-0.2-1.2,0.7-2.4,1.9-2.6c0.2,0,0.5,0,0.7,0h5.3v-6.9
	c0-1.8,0.5-2.4,2.3-2.3c3.7,0,7.5,0.1,11.2,0.1c5.3-0.1,10.5,1.7,14.6,5.1c0.4,0.4,0.9,0.8,1.4,1.1c1.4-6.8,6.6-12.1,13.4-13.5
	C171,146.6,171.8,146.4,172.7,146.3z M156.3,209.5c0-0.6-0.1-0.9-0.1-1.3c-0.3-6.4-0.6-12.8-0.8-19.2c-0.2-8.4,0.1-16.9,0.8-25.3
	c0-0.4-0.1-0.8-0.3-1.1c-3.2-3.1-7.4-5-11.9-5.3c-3.7-0.2-7.4-0.1-11-0.1h-2.3c0.1,15.8,0.3,31.4,0.4,47.1h9.8
	c1.6,0,3.3,0.1,4.9,0.4C149.7,205.3,153.3,207,156.3,209.5L156.3,209.5z M175.7,195.7v-45.4h-2.8c-5.2,0-9.9,2.9-12.4,7.4
	c-0.9,1.6-1.8,3.2-1.5,5.2c0.3,1.9,0.4,3.7,0.5,5.6c0.5,9.9,0.6,19.7,0.2,29.6c-0.1,1.6,0,3.1,0,4.7
	C163.6,197.5,169.1,195.3,175.7,195.7L175.7,195.7z M187.9,165.5c0,0.3,0,0.6,0,0.9c0.1,4.3,0.2,8.7,0.3,13
	c0.1,8.8,0.2,17.7,0.2,26.5c0,1.9-0.7,2.6-2.6,2.6c-3.8,0-7.6,0.1-11.3,0.1c-5.7-0.1-11.1,2.1-15,6.3c-1.3,1.3-2.4,1.3-3.8-0.1
	c-3.5-3.8-8.4-6-13.5-6.1c-4.2-0.1-8.5-0.1-12.7-0.1c-2,0-2.7-0.7-2.7-2.7c0-7.8,0.1-15.5,0.1-23.3c0-4,0.1-7.9,0.1-11.9v-5.1h-5.1
	c0.2,15.9,0.5,31.6,0.7,47.4h18.3c4.7-0.1,9.2,1.8,12.3,5.3c1.2,1.4,3,2.1,4.8,2c1.6-0.2,3-0.9,4.1-2.1c3-3.3,7.3-5.1,11.7-5h18.8
	c0.2-15.9,0.4-31.7,0.6-47.6C191.5,165.5,189.8,165.5,187.9,165.5L187.9,165.5z M179.9,156.8V189c0,2.9-0.1,5.9-0.2,8.8
	c0,1-0.9,1.9-1.9,1.9h-2.4c-4.3-0.3-8.2,0.5-11.6,3.3c-2,1.6-3.6,3.8-4.4,6.2c0.2-0.1,0.4-0.3,0.6-0.4c3.4-2.5,7.4-3.9,11.6-4.2
	c3.8-0.2,7.7-0.1,11.5-0.1h1.2c0.2-15.9,0.4-31.7,0.7-47.6C183.3,156.8,181.7,156.8,179.9,156.8z"/>
<path class="st1" d="M141.2,183c3.2,0.2,5.7,0.7,7.8,2.4c0.4,0.3,1.1,0.6,0.7,1.4s-0.6,1.6-1.8,1.4c-3.4-0.6-6.7-1.1-10.1-1.7
	c-0.6-0.1-1.1-0.7-1-1.3c0,0,0,0,0,0c0-0.7,0-1.4,0.9-1.6C138.9,183.5,140.1,183.3,141.2,183z"/>
<path class="st1" d="M149.9,195.1c-0.7,1.9-0.8,2.1-2.8,1.8c-2.9-0.4-5.7-0.8-8.6-1.3c-1.5-0.3-1.8-0.8-1.6-2.2
	c0.1-0.3,0.3-0.6,0.6-0.8C141.4,190.9,147.1,192,149.9,195.1z"/>
<path class="st1" d="M141.7,165.4c2.7,0,5.3,0.9,7.5,2.6c0.4,0.3,1,0.6,0.6,1.2s-0.5,1.6-1.6,1.4c-1.8-0.3-3.5-0.5-5.3-0.8
	s-3.4-0.7-5-1c-1-0.2-0.8-1-0.8-1.6s0.3-1,0.9-1.2C139.3,165.9,140.5,165.7,141.7,165.4z"/>
<path class="st1" d="M141.7,174.2c2.7,0.1,5.3,1,7.5,2.6c0.4,0.3,1,0.6,0.6,1.2s-0.5,1.6-1.6,1.4c-3.4-0.6-6.8-1.2-10.2-1.7
	c-0.9-0.2-0.9-0.8-0.9-1.5c-0.1-0.6,0.3-1.2,0.9-1.3C139.1,174.7,140.4,174.5,141.7,174.2z"/>
<g>
	
		<linearGradient id="SVGID_10_" gradientUnits="userSpaceOnUse" x1="220.6293" y1="1818.3274" x2="220.6293" y2="1890.5298" gradientTransform="matrix(1 0 0 -1 0 2221.8896)">
		<stop  offset="0" style="stop-color:#033333"/>
		<stop  offset="9.000000e-02" style="stop-color:#073D49"/>
		<stop  offset="0.29" style="stop-color:#105172"/>
		<stop  offset="0.49" style="stop-color:#166093"/>
		<stop  offset="0.67" style="stop-color:#1B6BAA"/>
		<stop  offset="0.85" style="stop-color:#1E72B8"/>
		<stop  offset="1" style="stop-color:#1F74BD"/>
	</linearGradient>
	<path class="st11" d="M215.2,403.6c-4.7,0.1-9.3-0.9-13.5-2.9c-3.7-1.8-6.9-4.5-9.3-7.9c-2.2-3.3-3.3-7.2-3.3-11.2
		c0-5.1,1.3-9.2,4-12.2s7-5.1,13-6.5s14-2,24.1-2h5v-3c0-4.7-1-8.2-3.1-10.2s-5.6-3.1-10.5-3.1c-3,0-6,0.3-8.9,1
		c-3.4,0.8-6.8,1.9-10,3.4c-2.3,1-4.2,1.2-5.7,0.4c-1.5-0.8-2.6-2.2-3.1-3.8c-0.5-1.7-0.4-3.6,0.3-5.3c0.8-1.9,2.4-3.3,4.3-4
		c4.1-1.7,8.3-3,12.6-3.8c3.6-0.7,7.3-1.1,11-1.1c10.2,0,17.7,2.3,22.6,7s7.4,12,7.4,21.8v34.2c0,6.1-2.8,9.1-8.3,9.1
		s-8.4-3-8.4-9.1v-3.1c-1.5,3.8-4.2,7-7.7,9.2C223.9,402.6,219.6,403.6,215.2,403.6z M218.9,391.3c4.4,0.1,8.6-1.6,11.6-4.8
		c3.1-3.3,4.8-7.7,4.6-12.2v-3.1h-4.8c-8.9,0-15.1,0.7-18.6,2.1s-5.2,3.9-5.2,7.5c-0.1,2.9,1.1,5.7,3.3,7.7
		C212.4,390.4,215.7,391.4,218.9,391.3z"/>
	
		<linearGradient id="SVGID_11_" gradientUnits="userSpaceOnUse" x1="302.8" y1="1818.6298" x2="302.8" y2="1890.7349" gradientTransform="matrix(1 0 0 -1 0 2221.8896)">
		<stop  offset="0" style="stop-color:#033333"/>
		<stop  offset="9.000000e-02" style="stop-color:#073D49"/>
		<stop  offset="0.29" style="stop-color:#105172"/>
		<stop  offset="0.49" style="stop-color:#166093"/>
		<stop  offset="0.67" style="stop-color:#1B6BAA"/>
		<stop  offset="0.85" style="stop-color:#1E72B8"/>
		<stop  offset="1" style="stop-color:#1F74BD"/>
	</linearGradient>
	<path class="st12" d="M279,403.3c-5.9,0-8.8-3-8.8-9.1v-53.8c0-6,2.9-9,8.7-9s8.7,3,8.7,9v3c2.3-3.9,5.6-7,9.6-9.1
		c4.2-2.1,8.9-3.2,13.6-3.1c16.4,0,24.6,9.5,24.6,28.6v34.4c0,6.1-2.9,9.1-8.8,9.1s-9-3-9-9.1v-33.6c0-5.4-1-9.3-3.1-11.8
		s-5.2-3.7-9.5-3.7c-5.2,0-9.4,1.6-12.5,4.9s-4.6,7.6-4.6,13v31.2C288,400.2,285,403.3,279,403.3z"/>
	
		<linearGradient id="SVGID_12_" gradientUnits="userSpaceOnUse" x1="381.8293" y1="1818.3274" x2="381.8293" y2="1890.5298" gradientTransform="matrix(1 0 0 -1 0 2221.8896)">
		<stop  offset="0" style="stop-color:#033333"/>
		<stop  offset="9.000000e-02" style="stop-color:#073D49"/>
		<stop  offset="0.29" style="stop-color:#105172"/>
		<stop  offset="0.49" style="stop-color:#166093"/>
		<stop  offset="0.67" style="stop-color:#1B6BAA"/>
		<stop  offset="0.85" style="stop-color:#1E72B8"/>
		<stop  offset="1" style="stop-color:#1F74BD"/>
	</linearGradient>
	<path class="st13" d="M376.4,403.6c-4.7,0.1-9.3-0.9-13.5-2.9c-3.7-1.8-6.9-4.5-9.3-7.9c-2.2-3.3-3.3-7.2-3.3-11.2
		c0-5.1,1.3-9.2,4-12.2s7-5.1,13-6.5s14-2,24.1-2h5v-3c0-4.7-1-8.2-3.1-10.2s-5.6-3.1-10.5-3.1c-3,0-6,0.3-8.9,1
		c-3.4,0.8-6.8,1.9-10,3.4c-2.3,1-4.2,1.2-5.7,0.4c-1.5-0.8-2.6-2.2-3.1-3.8c-0.5-1.7-0.4-3.6,0.3-5.3c0.8-1.9,2.4-3.3,4.3-4
		c4.1-1.7,8.3-3,12.6-3.8c3.6-0.7,7.3-1.1,11-1.1c10.2,0,17.7,2.3,22.6,7s7.4,12,7.4,21.8v34.2c0,6.1-2.8,9.1-8.3,9.1
		s-8.4-3-8.4-9.1v-3.1c-1.5,3.8-4.2,7-7.7,9.2C385.1,402.5,380.8,403.6,376.4,403.6z M380.1,391.3c4.4,0.1,8.6-1.6,11.6-4.8
		c3.1-3.3,4.8-7.7,4.6-12.2v-3.1h-4.8c-8.9,0-15.1,0.7-18.6,2.1s-5.2,3.9-5.2,7.5c-0.1,2.9,1.1,5.7,3.3,7.7
		C373.1,390.3,376.2,391.3,380.1,391.3z"/>
	
		<linearGradient id="SVGID_13_" gradientUnits="userSpaceOnUse" x1="449.3809" y1="1818.3297" x2="449.3809" y2="1911.2898" gradientTransform="matrix(1 0 0 -1 0 2221.8896)">
		<stop  offset="0" style="stop-color:#033333"/>
		<stop  offset="9.000000e-02" style="stop-color:#073D49"/>
		<stop  offset="0.29" style="stop-color:#105172"/>
		<stop  offset="0.49" style="stop-color:#166093"/>
		<stop  offset="0.67" style="stop-color:#1B6BAA"/>
		<stop  offset="0.85" style="stop-color:#1E72B8"/>
		<stop  offset="1" style="stop-color:#1F74BD"/>
	</linearGradient>
	<path class="st14" d="M463.2,403.6c-18.4,0-27.6-9.1-27.6-27.3V346h-7.4c-4.7,0-7.1-2.2-7.1-6.7s2.4-6.7,7.1-6.7h7.4v-13
		c0-6,3-9,9-9c5.9,0,8.8,3,8.8,9v13h15.1c4.7,0,7.1,2.2,7.1,6.7s-2.4,6.7-7.1,6.7h-15.1v29.3c0,4.6,1,8,3,10.2
		c2,2.3,5.2,3.4,9.7,3.4c1.4,0,2.9-0.1,4.3-0.4c1.1-0.3,2.2-0.5,3.3-0.6c1.1-0.1,2.1,0.3,2.8,1.1c0.8,0.8,1.1,2.4,1.1,4.9
		c0,1.7-0.3,3.5-0.9,5.1c-0.6,1.5-1.8,2.6-3.3,3.1c-1.6,0.5-3.2,0.8-4.8,1.1C466.5,403.4,464.7,403.6,463.2,403.6z"/>
	
		<linearGradient id="SVGID_14_" gradientUnits="userSpaceOnUse" x1="496.5737" y1="1818.8168" x2="496.5737" y2="1922.4297" gradientTransform="matrix(1 0 0 -1 0 2221.8896)">
		<stop  offset="0" style="stop-color:#033333"/>
		<stop  offset="9.000000e-02" style="stop-color:#073D49"/>
		<stop  offset="0.29" style="stop-color:#105172"/>
		<stop  offset="0.49" style="stop-color:#166093"/>
		<stop  offset="0.67" style="stop-color:#1B6BAA"/>
		<stop  offset="0.85" style="stop-color:#1E72B8"/>
		<stop  offset="1" style="stop-color:#1F74BD"/>
	</linearGradient>
	<path class="st15" d="M496.6,318.3c-3.3,0-5.9-0.8-7.8-2.5c-1.9-1.8-2.9-4.3-2.8-6.9c0-3,0.9-5.4,2.8-7s4.4-2.4,7.8-2.4
		c7,0,10.5,3.1,10.5,9.4S503.6,318.3,496.6,318.3z M496.6,403.1c-2.4,0.1-4.8-0.8-6.5-2.6c-1.6-2-2.4-4.5-2.3-7.1v-52.2
		c0-6.5,2.9-9.7,8.8-9.7s9,3.2,9,9.7v52.2c0.1,2.6-0.7,5.1-2.3,7.1C501.8,402.3,499.6,403.1,496.6,403.1z"/>
	
		<linearGradient id="SVGID_15_" gradientUnits="userSpaceOnUse" x1="550.2978" y1="1818.3184" x2="550.2978" y2="1890.7297" gradientTransform="matrix(1 0 0 -1 0 2221.8896)">
		<stop  offset="0" style="stop-color:#033333"/>
		<stop  offset="9.000000e-02" style="stop-color:#073D49"/>
		<stop  offset="0.29" style="stop-color:#105172"/>
		<stop  offset="0.49" style="stop-color:#166093"/>
		<stop  offset="0.67" style="stop-color:#1B6BAA"/>
		<stop  offset="0.85" style="stop-color:#1E72B8"/>
		<stop  offset="1" style="stop-color:#1F74BD"/>
	</linearGradient>
	<path class="st16" d="M556.3,403.6c-6.6,0.2-13.2-1.4-19.1-4.5c-5.3-2.9-9.7-7.3-12.5-12.7c-3-6-4.5-12.7-4.4-19.4
		c0-7.4,1.5-13.8,4.4-19.1c2.8-5.3,7.2-9.6,12.5-12.4c5.4-2.9,11.8-4.3,19.1-4.3c3.4,0,6.9,0.5,10.2,1.3c3.6,0.9,7.1,2.3,10.3,4.3
		c1.7,0.9,2.9,2.5,3.3,4.4c0.3,1.7,0.1,3.5-0.7,5c-0.8,1.5-2.1,2.6-3.6,3.3c-1.6,0.7-3.3,0.4-5.3-0.7c-3.8-2.3-8.2-3.6-12.7-3.7
		c-6.2,0-10.9,1.9-14.3,5.8s-5.1,9.3-5.1,16.4s1.7,12.5,5.1,16.6s8.1,6,14.3,6c4.5-0.1,8.8-1.3,12.7-3.6c2-1.1,3.7-1.4,5.3-0.7
		c1.5,0.7,2.6,1.8,3.3,3.3c0.7,1.6,0.8,3.3,0.4,5c-0.4,1.8-1.6,3.4-3.3,4.3c-3.1,1.9-6.5,3.3-10,4.1
		C563,403.1,559.7,403.5,556.3,403.6z"/>
</g>
<path class="st1" d="M259.3,148.5h45.6c2.4,0,4.3,1.9,4.3,4.2c0,0,0,0,0,0.1l0,0c0,2.4-1.9,4.3-4.2,4.3c0,0,0,0-0.1,0h-45.6
	c-2.4,0-4.3-1.9-4.3-4.2c0,0,0,0,0-0.1l0,0C255,150.4,256.9,148.5,259.3,148.5C259.3,148.5,259.3,148.5,259.3,148.5z"/>
<path class="st1" d="M7.3,148.7h45.6c2.4,0,4.3,1.9,4.3,4.2c0,0,0,0,0,0.1l0,0c0,2.4-1.9,4.3-4.2,4.3c0,0,0,0-0.1,0H7.3
	c-2.4,0-4.3-1.9-4.3-4.2c0,0,0,0,0-0.1l0,0c-0.1-2.3,1.8-4.3,4.1-4.3C7.2,148.7,7.2,148.7,7.3,148.7z"/>
<path class="st1" d="M160.1,11.9v45.6c0,2.4-1.9,4.3-4.2,4.3c0,0,0,0-0.1,0l0,0c-2.4,0-4.3-1.9-4.3-4.2c0,0,0,0,0-0.1V11.9
	c0-2.4,1.9-4.3,4.2-4.3c0,0,0,0,0.1,0l0,0c2.3-0.1,4.2,1.8,4.3,4.1C160.1,11.7,160.1,11.8,160.1,11.9z"/>
<path class="st1" d="M61.5,62.9l21,22c1.4,1.4,1.4,3.8-0.1,5.2c0,0,0,0,0,0l-1,0.9c-1.4,1.4-3.8,1.4-5.2-0.1c0,0,0,0,0,0l-21-22
	c-1.4-1.4-1.4-3.8,0.1-5.2c0,0,0,0,0,0l1-0.9c1.4-1.4,3.6-1.4,5-0.1C61.4,62.8,61.5,62.8,61.5,62.9z"/>
<path class="st1" d="M256.9,69.1l-21.5,21.5c-1.4,1.4-3.8,1.4-5.2,0l-0.9-0.9c-1.4-1.4-1.4-3.8,0-5.2L250.8,63
	c1.4-1.4,3.8-1.4,5.2,0l0.9,0.9c1.4,1.4,1.5,3.6,0.1,5C257,69,257,69,256.9,69.1z"/>
</svg>
