<svg id="Layer_1" data-name="Layer 1" xmlns="http://www.w3.org/2000/svg" xmlns:xlink="http://www.w3.org/1999/xlink" viewBox="0 0 366.38 604.81"><defs><style>.cls-1,.cls-2{fill:#fff;}.cls-1{stroke:#1025a1;stroke-miterlimit:10;}.cls-3{fill:#1025a1;}.cls-4{fill:url(#radial-gradient);}.cls-5{fill:url(#linear-gradient);}.cls-6{fill:url(#linear-gradient-2);}.cls-7{fill:url(#linear-gradient-3);}.cls-8{fill:url(#linear-gradient-4);}.cls-9{fill:url(#linear-gradient-5);}.cls-10{fill:url(#linear-gradient-6);}.cls-11{fill:url(#linear-gradient-7);}.cls-12{fill:#1f74bd;}.cls-13{fill:url(#linear-gradient-8);}.cls-14{fill:url(#linear-gradient-9);}.cls-15{fill:url(#linear-gradient-10);}.cls-16{fill:url(#linear-gradient-11);}.cls-17{fill:url(#linear-gradient-12);}.cls-18{fill:url(#linear-gradient-13);}.cls-19{fill:url(#linear-gradient-14);}.cls-20{fill:#011c7e;}</style><radialGradient id="radial-gradient" cx="83.28" cy="121.68" fx="94.57843841102289" r="11.49" gradientUnits="userSpaceOnUse"><stop offset="0.04" stop-color="#ebebeb"/><stop offset="0.13" stop-color="#a7b2f6"/><stop offset="0.23" stop-color="#8393f3"/><stop offset="0.5" stop-color="#1836e8"/><stop offset="0.6" stop-color="#1631d7"/><stop offset="0.75" stop-color="#142dc5"/><stop offset="0.88" stop-color="#1229b3"/><stop offset="1" stop-color="#1025a1"/></radialGradient><linearGradient id="linear-gradient" x1="161.73" y1="-938.17" x2="161.73" y2="-966.86" gradientTransform="translate(0 1141.89)" gradientUnits="userSpaceOnUse"><stop offset="0" stop-color="#011c7e"/><stop offset="0.04" stop-color="#021c80"/><stop offset="0.63" stop-color="#0c2398"/><stop offset="1" stop-color="#1025a1"/></linearGradient><linearGradient id="linear-gradient-2" x1="190.12" y1="126.8" x2="190.12" y2="126.49" gradientTransform="matrix(1, 0, 0, 1, 0, 0)" xlink:href="#linear-gradient"/><linearGradient id="linear-gradient-3" x1="213.13" y1="-937.64" x2="213.13" y2="-968.68" xlink:href="#linear-gradient"/><linearGradient id="linear-gradient-4" x1="250.38" y1="983.91" x2="250.38" y2="1013.87" gradientTransform="matrix(1, 0, 0, -1, 0, 1188.16)" xlink:href="#linear-gradient"/><linearGradient id="linear-gradient-5" x1="271.6" y1="-937.53" x2="271.6" y2="-959.82" xlink:href="#linear-gradient"/><linearGradient id="linear-gradient-6" x1="295.65" y1="-937.92" x2="295.65" y2="-958.77" xlink:href="#linear-gradient"/><linearGradient id="linear-gradient-7" x1="319.14" y1="-928.89" x2="319.14" y2="-958.7" xlink:href="#linear-gradient"/><linearGradient id="linear-gradient-8" x1="93.66" y1="-876.53" x2="93.66" y2="-938.28" gradientTransform="translate(0 1141.89)" gradientUnits="userSpaceOnUse"><stop offset="0" stop-color="#011c7e"/><stop offset="1" stop-color="#1025a1"/></linearGradient><linearGradient id="linear-gradient-9" x1="139.36" y1="-876.84" x2="139.36" y2="-915.35" xlink:href="#linear-gradient-8"/><linearGradient id="linear-gradient-10" x1="183.19" y1="-877.01" x2="183.19" y2="-915.46" xlink:href="#linear-gradient-8"/><linearGradient id="linear-gradient-11" x1="225.32" y1="-876.84" x2="225.32" y2="-915.35" xlink:href="#linear-gradient-8"/><linearGradient id="linear-gradient-12" x1="261.34" y1="-876.85" x2="261.34" y2="-926.44" xlink:href="#linear-gradient-8"/><linearGradient id="linear-gradient-13" x1="286.5" y1="-877.11" x2="286.5" y2="-932.36" xlink:href="#linear-gradient-8"/><linearGradient id="linear-gradient-14" x1="315.15" y1="-876.84" x2="315.15" y2="-915.45" xlink:href="#linear-gradient-8"/></defs><circle class="cls-1" cx="183.19" cy="183.19" r="182.69"/><path class="cls-2" d="M151.52,134.93c-.22-13-6-25.33-17.39-34.55-12.48-10.13-26.82-12.75-42.28-8.59-18,4.8-32,21.65-33.76,40.21a47.33,47.33,0,0,0,4.48,24.63c3.52,7.63,7.68,14.94,11.41,22.4a45.45,45.45,0,0,1,2.78,7.31c.85,3,2.61,4.42,5.27,4s4.27-2.72,3.52-5.76a37.68,37.68,0,0,0-2.88-8.22c-3.78-7.62-7.89-15.09-11.62-22.71A37.61,37.61,0,0,1,87.53,103a36.51,36.51,0,0,1,10.93-3.57A38.05,38.05,0,0,1,141,125.55c3,9.7,1.76,19.14-2.45,28.1-3.68,7.73-7.95,15.2-11.73,22.87a38.51,38.51,0,0,0-2.83,8.64,4.14,4.14,0,0,0,3.47,5.23c2.45.43,4.48-1.07,5.33-3.79a57.29,57.29,0,0,1,2.93-7.78c3.09-6.19,6.51-12.16,9.55-18.35C148.9,152.9,151.52,145.06,151.52,134.93Z"/><path class="cls-3" d="M151.41,134.93c0,10.19-2.61,18-6.29,25.44-3,6.18-6.46,12.16-9.55,18.34a57.42,57.42,0,0,0-2.93,7.79c-.85,2.72-2.77,4.26-5.33,3.78a4.13,4.13,0,0,1-3.47-5.22,38.18,38.18,0,0,1,2.83-8.64c3.78-7.68,8-15.15,11.73-22.88,4.26-9,5.49-18.39,2.45-28.1a37.85,37.85,0,1,0-70,28.16c3.73,7.62,7.84,15.09,11.62,22.71a43.68,43.68,0,0,1,2.88,8.21c.75,3-.8,5.28-3.52,5.76s-4.37-1-5.27-4a40.33,40.33,0,0,0-2.78-7.3c-3.73-7.52-7.89-14.83-11.41-22.4A47.67,47.67,0,0,1,57.93,132c1.71-18.56,15.73-35.41,33.76-40.21,15.51-4.11,29.8-1.49,42.28,8.58C145.49,109.6,151.2,121.87,151.41,134.93Z"/><path class="cls-4" d="M78.62,118.24a21.37,21.37,0,0,1,10-8c1.5-.58,2.83-.16,3.36,1.12a2.37,2.37,0,0,1-1.54,3.2,17.57,17.57,0,0,0-10.35,10.88,23.12,23.12,0,0,0-1,5.44c-.16,1.49-1,2.51-2.34,2.51a2.26,2.26,0,0,1-2.35-2.51A21.06,21.06,0,0,1,78.62,118.24Z"/><path class="cls-3" d="M128.21,209H83.74a4.05,4.05,0,0,1-4-4.06h0a4,4,0,0,1,4-4h44.47a4.05,4.05,0,0,1,4.06,4h0a4.06,4.06,0,0,1-4.06,4.06Z"/><path class="cls-5" d="M151,175a4.82,4.82,0,0,1,4,2.4,58.24,58.24,0,0,1,3.68,6.88l2.93,6.24.43.69c.21,0,1.33-2.18,3.3-6.56s3.2-6.88,3.58-7.46a4.2,4.2,0,0,1,3.89-2,4.43,4.43,0,0,1,1.38.59,3.14,3.14,0,0,1,1.34,2,24.35,24.35,0,0,1,.42,5.55v5.23l0,3.09v7l0,2.88a2.5,2.5,0,0,1-.48,1.49,1.7,1.7,0,0,1-1.38.64,2.45,2.45,0,0,1-1.65-.64,3.82,3.82,0,0,1-1-1.55,35.31,35.31,0,0,1-.32-6.61l-.05-2.08v-2.08c0-4-.16-6-.48-6s-1.39,2-3.15,6.08-2.82,6.34-3.14,6.93a2.47,2.47,0,0,1-2.19,1.28,2.65,2.65,0,0,1-2.24-1c-.27-.38-1.33-2.62-3.2-6.83s-3-6.29-3.3-6.29-.64,2.08-1,6.24c-.11,1.54-.22,3.25-.22,5.06a30.66,30.66,0,0,1-.21,3.95,5,5,0,0,1-.8,2.08,1.86,1.86,0,0,1-1.55.91,2.22,2.22,0,0,1-1.28-.27,2.55,2.55,0,0,1-.69-2.08l.69-19.14v-1l0-2a4.75,4.75,0,0,1,.53-2.4A2.47,2.47,0,0,1,151,175Z"/><path class="cls-6" d="M193,194.92c-4.53,0-6.77.48-6.77,1.44a3.36,3.36,0,0,0,1.33,2.88,5.07,5.07,0,0,0,3.36,1.07,13.49,13.49,0,0,0,3.89-.54,10.11,10.11,0,0,1,2.51-.53,1.51,1.51,0,0,1,1.12.53,2.39,2.39,0,0,1,.42,1.6c0,.7-.74,1.44-2.29,2.14a11.24,11.24,0,0,1-4.74,1.06h-1.55a11.64,11.64,0,0,1-3.84-.74,7.86,7.86,0,0,1-5.12-5.23,14.44,14.44,0,0,1-.64-4.27v-1c0-5.12,1.81-8.48,5.44-10a11.14,11.14,0,0,1,4.59-.85c2.87,0,5.11.74,6.61,2.18a9.51,9.51,0,0,1,2.34,5.87v1.39a2.24,2.24,0,0,1-1.28,2.34A15.71,15.71,0,0,1,193,194.92Zm1.76-4.58V190a3.25,3.25,0,0,0-1.12-2.61,4.11,4.11,0,0,0-2.67-1h-.53a4.22,4.22,0,0,0-4.27,4.11V191c0,.37.48.58,1.39.58h1.17l4.43-.21.48,0C194.33,191.3,194.71,191,194.71,190.34Z"/><path class="cls-7" d="M222.7,201.27h0c0,1.65-.85,2.45-2.56,2.45a2.9,2.9,0,0,1-1.49-.21,3.88,3.88,0,0,1-.64-.64c-.21-.27-.37-.38-.53-.38a5.08,5.08,0,0,0-.91.43,8.75,8.75,0,0,1-4.43,1.33h-.48a7.46,7.46,0,0,1-5.91-2.5,10.58,10.58,0,0,1-2.19-7.1v-1a16.49,16.49,0,0,1,.75-4.85,8.6,8.6,0,0,1,4.42-5.55,7.18,7.18,0,0,1,3.15-.74,15.75,15.75,0,0,1,2.72.26A11.2,11.2,0,0,0,216,183c.48,0,.75-.32.91-.91a19.72,19.72,0,0,0,.48-4.64c0-1.81.16-2.93.53-3.46a1.88,1.88,0,0,1,1.66-.8h.9c1,0,1.6.21,1.87.64a3.94,3.94,0,0,1,.21,1.76v17.11l.06,3.84v4.7Zm-14.23-8.16v.69a8.61,8.61,0,0,0,1,4.64,3.62,3.62,0,0,0,3.14,2h.8a3.75,3.75,0,0,0,3.41-1.92,9.48,9.48,0,0,0,.7-4.32v-2.29c0-2-.27-3.41-.8-4a4,4,0,0,0-3.42-1.49h-.21c-3.09-.06-4.58,2.18-4.58,6.77Z"/><path class="cls-8" d="M240.94,175.67a1.63,1.63,0,0,1,.32-1.07c.21-.21,1-.32,2.35-.32s2.18.43,2.4,1.28c.32,1.07.42,5,.42,11.74s.27,10.55.75,11.46a2.16,2.16,0,0,0,1.76.91c.9.1,2.72.16,5.44.16a20.18,20.18,0,0,1,4.58.26c.59.32.86,1,.86,2.14v.48a1.93,1.93,0,0,1-.32,1.28,2.87,2.87,0,0,1-1.71.32H253l-2.45-.06c-4.11,0-6.51-.05-7.25-.16a2.12,2.12,0,0,1-1.66-1c-.32-.59-.53-5.39-.53-14.45l0-2.83v-6.4L241,178C240.94,176.9,240.94,176.2,240.94,175.67Z"/><path class="cls-9" d="M275.23,189.43c0-2.08-1.28-3.09-3.9-3.09a15.87,15.87,0,0,0-3.57.53,15.37,15.37,0,0,1-2.72.53,1.14,1.14,0,0,1-1-.58,2.32,2.32,0,0,1,1.17-3.63,13,13,0,0,1,5.65-1.12h.54q5.36,0,7.68,3a7,7,0,0,1,1.17,2.83,41,41,0,0,1,.27,5.65,39.65,39.65,0,0,0,.26,5.65A15.67,15.67,0,0,1,281,202,1.76,1.76,0,0,1,278.8,204a4.74,4.74,0,0,1-1.92-.27,3.18,3.18,0,0,1-1-.69c-.32-.27-.53-.43-.75-.43a13,13,0,0,0-2.4.86,9.75,9.75,0,0,1-3.68.85h-.48a6,6,0,0,1-6.45-6.24v-1a5,5,0,0,1,.7-2.51c1.22-2.35,4.26-3.57,9.11-3.78a9.37,9.37,0,0,0,2.88-.32A1.41,1.41,0,0,0,275.23,189.43Zm-7.63,8.42a2,2,0,0,0,1.07,1.76,4,4,0,0,0,2.29.7h.59a4,4,0,0,0,3.3-1.55,4.44,4.44,0,0,0,.54-2.72v-.8c0-.91-.48-1.33-1.39-1.33h-1.71a6.92,6.92,0,0,0-3.57.8,2.32,2.32,0,0,0-1.23,1.86v.8C267.6,197.48,267.6,197.64,267.6,197.85Z"/><path class="cls-10" d="M286.48,186.12a5.2,5.2,0,0,1,.32-2.24c.21-.37.8-.58,1.7-.58a3.28,3.28,0,0,1,2,.48,5.81,5.81,0,0,1,.59.64c.32.37.53.53.74.53a4.87,4.87,0,0,0,1.18-.48,8.39,8.39,0,0,1,4-1.33h1.07a6.65,6.65,0,0,1,2.88.64,6.09,6.09,0,0,1,3.35,4.37,19.74,19.74,0,0,1,.32,4.42l.16,5.28.22,4.16a1.61,1.61,0,0,1-.38,1.28,3,3,0,0,1-1.81.38c-1.44,0-2.29-.54-2.56-1.66-.26-2.08-.42-4.21-.48-6.29a29.9,29.9,0,0,0-.69-6.5,6.7,6.7,0,0,0-3.47-2.46,3.72,3.72,0,0,0-3.57,1.82c-.53.9-.8,2.66-.8,5.33l-.05,1.7-.06,2.3a24.17,24.17,0,0,1-.26,4.8c-.32.85-1.23,1.28-2.67,1.28a2.43,2.43,0,0,1-1.71-.43,2,2,0,0,1-.37-1.44v-2.19l.11-3.36V191l.05-2.72v-2.19Z"/><path class="cls-11" d="M328.44,203.61c0,4.48-2,7.36-5.86,8.69a13.64,13.64,0,0,1-4.37.7h-.59a11.67,11.67,0,0,1-4.48-.86c-1.44-.53-2.13-1.17-2.13-1.86a3.35,3.35,0,0,1,.48-1.76,1.7,1.7,0,0,1,1.44-.75c.64.11,1.33.22,2,.38a13.56,13.56,0,0,0,3.25.37c1.76,0,3-.37,3.73-1.17a4.83,4.83,0,0,0,1.12-3.47c0-.48-.16-.75-.42-.75l-1.55.48a11,11,0,0,1-3,.38,8,8,0,0,1-3.36-.7,6.57,6.57,0,0,1-2.78-1.86c-1.49-1.6-2.18-4-2.18-7.2v-1.34a14.1,14.1,0,0,1,.64-4.21,11.55,11.55,0,0,1,1.44-3.2,6.24,6.24,0,0,1,5.33-2.29h.59a8,8,0,0,1,2.72.48l1.06.32c.53.16,1.07.32,1.6.43a4.39,4.39,0,0,0,1.17-.32,6,6,0,0,1,2-.32,1.76,1.76,0,0,1,2,1.6c0,.32.11,1.81.11,4.42v8l.21,5.07v.69Zm-14-8.32a6.17,6.17,0,0,0,1.17,4.06,3.85,3.85,0,0,0,3.26,1.54h.37a3.86,3.86,0,0,0,4.16-4.42,2.39,2.39,0,0,0,.05-.59l.05-1v-2.19a2.32,2.32,0,0,1-.05-.59,5.73,5.73,0,0,0-.91-3.57,3.53,3.53,0,0,0-2.93-1.06h-.42A4.26,4.26,0,0,0,315.7,189a6,6,0,0,0-1.28,4.1l-.05.43v.85c0,.32.05.7.05,1Z"/><path class="cls-3" d="M128.11,225.32H83.63a4.05,4.05,0,0,1-4-4.06h0a4,4,0,0,1,4-4h44.48a4,4,0,0,1,4,4h0a4.05,4.05,0,0,1-4,4.06Z"/><path class="cls-12" d="M88.17,259.5V227.77A.83.83,0,0,1,89,227h0c6.19.75,6.62.05,9.55.11a.84.84,0,0,1,.85.85h0v31.78a5.65,5.65,0,0,1-5.65,5.65h-.37A5.93,5.93,0,0,1,88.17,259.5Z"/><path class="cls-13" d="M93.66,265.36h0a5.74,5.74,0,0,1-5.76-5.76V209.37a5.74,5.74,0,0,1,5.76-5.76h0a5.74,5.74,0,0,1,5.76,5.76V259.6a5.74,5.74,0,0,1-5.76,5.76Z"/><path class="cls-2" d="M91.53,149.7a2.68,2.68,0,0,1-1,2.51,23.4,23.4,0,0,1-4.05-1.92A2.65,2.65,0,0,1,88,147.78C88.06,147.84,91.53,149.65,91.53,149.7Z"/><path class="cls-2" d="M119.47,159.41a3,3,0,0,1-2.93.05,20.29,20.29,0,0,0-.32-4.32s.1-.11.21-.16a2.36,2.36,0,0,1,2.5-.21A17.54,17.54,0,0,1,119.47,159.41Z"/><path class="cls-3" d="M113.82,127.84h3a1.18,1.18,0,0,1,.74,1.33c0,1,0,2,0,2.94H121c.64,0,.85.21.91.85v3.78h3c1,0,1.44.43,1.44,1.39.06,3.68.16,7.41.22,11.09,0,4.91.1,9.76.1,14.67a1.67,1.67,0,0,1-1.81,1.86c-3.36,0-6.72.06-10.13,0a6.3,6.3,0,0,0-5,2.14,5.36,5.36,0,0,1-7.89,0,7.11,7.11,0,0,0-5.28-2.19c-3.2.05-6.4,0-9.6,0a1.94,1.94,0,0,1-2.08-1.28v-7.95a1,1,0,0,0,.11-.37l.32-17.92a1.23,1.23,0,0,1,1-1.38h3.2v-3.68c0-1,.27-1.28,1.23-1.23,2,0,4,.06,6,.06a11.77,11.77,0,0,1,7.78,2.72,4.28,4.28,0,0,0,.75.58,9.2,9.2,0,0,1,7.15-7.2C112.91,128,113.34,127.89,113.82,127.84Zm-8.75,33.7c0-.32,0-.48,0-.69-.16-3.42-.32-6.83-.43-10.24a124.08,124.08,0,0,1,.43-13.49,1.13,1.13,0,0,0-.16-.59,10.11,10.11,0,0,0-6.35-2.82c-2-.11-3.94-.06-5.86-.06H91.42c0,8.43.16,16.75.21,25.12h5.23a14.36,14.36,0,0,1,2.61.21,11.51,11.51,0,0,1,5.6,2.56Zm10.35-7.36V130h-1.5a7.59,7.59,0,0,0-6.61,3.95,4.24,4.24,0,0,0-.8,2.77,29.91,29.91,0,0,1,.27,3c.26,5.28.32,10.5.1,15.78,0,.85,0,1.65,0,2.51a9.28,9.28,0,0,1,8.54-3.79Zm6.5-16.1v.48c0,2.29.11,4.64.16,6.93,0,4.69.11,9.44.11,14.13,0,1-.38,1.39-1.39,1.39-2,0-4,.05-6,.05a10.57,10.57,0,0,0-8,3.36c-.7.69-1.28.69-2,0a10.11,10.11,0,0,0-7.2-3.26c-2.24-.05-4.53-.05-6.77-.05-1.07,0-1.44-.37-1.44-1.44,0-4.16,0-8.26,0-12.42,0-2.14.06-4.22.06-6.35v-2.72H86.73c.1,8.48.26,16.85.37,25.28h9.76a8.5,8.5,0,0,1,6.56,2.82A3.14,3.14,0,0,0,106,167.3a3.48,3.48,0,0,0,2.18-1.12,8.22,8.22,0,0,1,6.24-2.67h10c.1-8.48.21-16.9.32-25.38-.91,0-1.82,0-2.83,0Zm-4.26-4.64v17.17c0,1.55-.06,3.15-.11,4.69a1,1,0,0,1-1,1h-1.28a8.34,8.34,0,0,0-6.19,1.76,7.32,7.32,0,0,0-2.35,3.31c.11,0,.22-.16.32-.21a11.77,11.77,0,0,1,6.19-2.24c2-.11,4.11-.06,6.13-.06H120c.11-8.47.21-16.9.37-25.38C119.47,133.44,118.61,133.44,117.66,133.44Z"/><path class="cls-3" d="M97,147.41a6.89,6.89,0,0,1,4.16,1.28c.21.16.58.32.37.75s-.32.85-1,.74c-1.81-.32-3.57-.58-5.38-.9a.66.66,0,0,1-.54-.7h0c0-.37,0-.74.48-.85A10.29,10.29,0,0,0,97,147.41Z"/><path class="cls-3" d="M101.66,153.86c-.38,1-.43,1.12-1.5,1-1.54-.21-3-.42-4.58-.69-.8-.16-1-.43-.85-1.17a.83.83,0,0,1,.32-.43A6.27,6.27,0,0,1,101.66,153.86Z"/><path class="cls-3" d="M97.29,138a6.45,6.45,0,0,1,4,1.39c.22.16.54.32.32.64s-.26.85-.85.75c-1-.16-1.86-.27-2.82-.43s-1.82-.37-2.67-.53c-.53-.11-.43-.54-.43-.86a.63.63,0,0,1,.48-.64A11.37,11.37,0,0,0,97.29,138Z"/><path class="cls-3" d="M97.29,142.72a7.2,7.2,0,0,1,4,1.38c.22.16.54.32.32.64s-.26.86-.85.75c-1.81-.32-3.62-.64-5.44-.91-.48-.1-.48-.42-.48-.8a.6.6,0,0,1,.48-.69C95.9,143,96.59,142.88,97.29,142.72Z"/><path class="cls-14" d="M136.48,265a15.91,15.91,0,0,1-7.2-1.54,13,13,0,0,1-5-4.22,10.75,10.75,0,0,1-1.76-6,9.35,9.35,0,0,1,2.13-6.5c1.44-1.6,3.74-2.72,6.94-3.47a58.92,58.92,0,0,1,12.85-1.07h2.66v-1.6c0-2.5-.53-4.37-1.65-5.44s-3-1.65-5.6-1.65a20.32,20.32,0,0,0-4.74.53,27.58,27.58,0,0,0-5.34,1.82,3.08,3.08,0,0,1-4.69-1.82,4.28,4.28,0,0,1,.16-2.82,4,4,0,0,1,2.29-2.14,34.36,34.36,0,0,1,6.72-2,31.08,31.08,0,0,1,5.87-.59c5.44,0,9.44,1.23,12.05,3.73s3.94,6.4,3.94,11.63v18.24c0,3.25-1.49,4.85-4.42,4.85s-4.48-1.6-4.48-4.85v-1.66a10.21,10.21,0,0,1-4.11,4.91A13.7,13.7,0,0,1,136.48,265Zm2-6.56a8.14,8.14,0,0,0,6.19-2.56,8.94,8.94,0,0,0,2.45-6.5v-1.66h-2.56c-4.75,0-8.05.38-9.92,1.12a4,4,0,0,0-2.77,4A5.33,5.33,0,0,0,133.6,257,7.89,7.89,0,0,0,138.45,258.48Z"/><path class="cls-15" d="M170.5,264.88c-3.15,0-4.69-1.6-4.69-4.85V231.34c0-3.2,1.54-4.8,4.64-4.8s4.63,1.6,4.63,4.8v1.6a12.85,12.85,0,0,1,5.12-4.85,15.49,15.49,0,0,1,7.26-1.65c8.74,0,13.11,5.06,13.11,15.25V260c0,3.25-1.54,4.85-4.69,4.85s-4.8-1.6-4.8-4.85V242.11c0-2.88-.53-5-1.65-6.29a6.19,6.19,0,0,0-5.07-2,8.7,8.7,0,0,0-6.66,2.61,9.64,9.64,0,0,0-2.46,6.93V260C175.3,263.23,173.7,264.88,170.5,264.88Z"/><path class="cls-16" d="M222.44,265a15.91,15.91,0,0,1-7.2-1.54,13,13,0,0,1-5-4.22,10.75,10.75,0,0,1-1.76-6,9.35,9.35,0,0,1,2.13-6.5c1.44-1.6,3.73-2.72,6.93-3.47a59,59,0,0,1,12.85-1.07h2.67v-1.6c0-2.5-.53-4.37-1.65-5.44s-3-1.65-5.6-1.65a20.47,20.47,0,0,0-4.75.53,27.72,27.72,0,0,0-5.33,1.82,3.08,3.08,0,0,1-4.69-1.82,4.22,4.22,0,0,1,.16-2.82,3.93,3.93,0,0,1,2.29-2.14,34.36,34.36,0,0,1,6.72-2,31.08,31.08,0,0,1,5.87-.59c5.43,0,9.43,1.23,12,3.73s3.94,6.4,3.94,11.63v18.24c0,3.25-1.49,4.85-4.42,4.85s-4.48-1.6-4.48-4.85v-1.66a10.21,10.21,0,0,1-4.11,4.91A14.28,14.28,0,0,1,222.44,265Zm2-6.56a8.12,8.12,0,0,0,6.18-2.56,9,9,0,0,0,2.46-6.5v-1.66h-2.56c-4.75,0-8.05.38-9.92,1.12a4,4,0,0,0-2.77,4,5.26,5.26,0,0,0,1.76,4.11A7.32,7.32,0,0,0,224.41,258.48Z"/><path class="cls-17" d="M268.72,265Q254,265,254,250.48V234.33h-3.94c-2.51,0-3.79-1.18-3.79-3.58s1.28-3.57,3.79-3.57H254v-6.93q0-4.8,4.8-4.8c3.15,0,4.7,1.6,4.7,4.8v6.93h8.05c2.5,0,3.78,1.18,3.78,3.57s-1.28,3.58-3.78,3.58H263.5V250c0,2.45.53,4.27,1.6,5.44s2.77,1.81,5.17,1.81a11.16,11.16,0,0,0,2.29-.21,9.88,9.88,0,0,1,1.76-.32,1.72,1.72,0,0,1,1.49.59c.43.42.59,1.28.59,2.61a7.87,7.87,0,0,1-.48,2.72,2.82,2.82,0,0,1-1.76,1.65,21.48,21.48,0,0,1-2.56.59C270.48,264.94,269.52,265,268.72,265Z"/><path class="cls-18" d="M286.53,219.56a6,6,0,0,1-4.16-1.34,4.81,4.81,0,0,1-1.49-3.68,4.64,4.64,0,0,1,1.49-3.73,6.2,6.2,0,0,1,4.16-1.28c3.73,0,5.6,1.65,5.6,5S290.26,219.56,286.53,219.56Zm0,45.22a4.5,4.5,0,0,1-3.46-1.39,5.67,5.67,0,0,1-1.23-3.79V231.77c0-3.47,1.55-5.17,4.69-5.17s4.8,1.7,4.8,5.17V259.6a5.67,5.67,0,0,1-1.23,3.79A4.33,4.33,0,0,1,286.53,264.78Z"/><path class="cls-19" d="M318.37,265a20.55,20.55,0,0,1-10.19-2.4,16.22,16.22,0,0,1-6.66-6.77,22.48,22.48,0,0,1-2.35-10.34,21,21,0,0,1,2.35-10.19,15.84,15.84,0,0,1,6.66-6.61,21.23,21.23,0,0,1,10.19-2.29,23.15,23.15,0,0,1,5.43.69,19.32,19.32,0,0,1,5.5,2.29,3.47,3.47,0,0,1,1.76,2.35,4.14,4.14,0,0,1-.38,2.66,4,4,0,0,1-1.92,1.76,3,3,0,0,1-2.82-.37,13.66,13.66,0,0,0-6.77-2c-3.31,0-5.82,1-7.63,3.09s-2.72,5-2.72,8.75.91,6.66,2.72,8.85,4.32,3.2,7.63,3.2a14,14,0,0,0,6.77-1.92,3.08,3.08,0,0,1,2.82-.38,3.55,3.55,0,0,1,1.76,1.76,4.15,4.15,0,0,1,.22,2.67,3.5,3.5,0,0,1-1.76,2.29,17.87,17.87,0,0,1-5.34,2.19A24.15,24.15,0,0,1,318.37,265Z"/><path class="cls-3" d="M160,129h24.32a2.27,2.27,0,0,1,2.29,2.24v.06h0a2.26,2.26,0,0,1-2.24,2.29H160a2.26,2.26,0,0,1-2.29-2.24v-.05h0A2.28,2.28,0,0,1,160,129Z"/><path class="cls-3" d="M25.62,129.12H49.93a2.27,2.27,0,0,1,2.3,2.24v0h0a2.28,2.28,0,0,1-2.24,2.3H25.62a2.27,2.27,0,0,1-2.29-2.24v-.06h0a2.22,2.22,0,0,1,2.18-2.29Z"/><path class="cls-3" d="M107.1,56.17V80.49a2.27,2.27,0,0,1-2.24,2.29h-.06a2.26,2.26,0,0,1-2.29-2.24V56.17a2.26,2.26,0,0,1,2.24-2.29h0a2.26,2.26,0,0,1,2.3,2.19Z"/><path class="cls-3" d="M54.52,83.37,65.72,95.1a2,2,0,0,1-.06,2.77h0l-.53.48a1.94,1.94,0,0,1-2.77,0h0L51.16,86.57a2,2,0,0,1,.05-2.78h0l.54-.48a1.92,1.92,0,0,1,2.66,0C54.47,83.31,54.52,83.31,54.52,83.37Z"/><path class="cls-3" d="M158.71,86.67,147.25,98.14a2,2,0,0,1-2.77,0l-.48-.48a2,2,0,0,1,0-2.77l11.46-11.47a2,2,0,0,1,2.77,0l.48.48a1.88,1.88,0,0,1,.06,2.67C158.77,86.62,158.77,86.62,158.71,86.67Z"/><circle class="cls-20" cx="129.49" cy="538.33" r="66.47"/><path class="cls-2" d="M159.19,531.57a28.64,28.64,0,0,0-11.12-22.09c-8-6.48-17.15-8.15-27-5.49a29.54,29.54,0,0,0-18.71,41.46c2.25,4.88,4.91,9.55,7.29,14.32a29,29,0,0,1,1.78,4.67c.54,1.91,1.67,2.83,3.37,2.56a2.77,2.77,0,0,0,2.25-3.68,23.89,23.89,0,0,0-1.84-5.25c-2.42-4.88-5-9.65-7.43-14.53a24,24,0,0,1,10.53-32.35,23.42,23.42,0,0,1,7-2.29,24.08,24.08,0,0,1,25.64,34.64c-2.35,5-5.08,9.72-7.5,14.63a24.45,24.45,0,0,0-1.81,5.52,2.65,2.65,0,0,0,2.22,3.34c1.57.27,2.86-.68,3.41-2.42a36.85,36.85,0,0,1,1.87-5c2-4,4.16-7.77,6.11-11.72A36.27,36.27,0,0,0,159.19,531.57Z"/><path class="cls-2" d="M124.34,539.55a4.43,4.43,0,0,1,2.66.82c.14.1.38.21.24.48s-.21.54-.61.48c-1.16-.21-2.29-.38-3.45-.58a.42.42,0,0,1-.34-.45h0c0-.24,0-.47.31-.54A7.38,7.38,0,0,0,124.34,539.55Z"/><path class="cls-2" d="M127.31,543.68c-.24.65-.28.71-1,.61-1-.13-1.94-.27-2.93-.44-.51-.1-.61-.27-.54-.75a.48.48,0,0,1,.2-.27A4,4,0,0,1,127.31,543.68Z"/><path class="cls-2" d="M124.51,533.55a4.17,4.17,0,0,1,2.56.89c.14.1.34.2.2.41s-.17.54-.54.47l-1.81-.27c-.61-.1-1.16-.24-1.7-.34-.34-.07-.28-.34-.28-.54a.4.4,0,0,1,.31-.41A8.49,8.49,0,0,0,124.51,533.55Z"/><path class="cls-2" d="M124.51,536.55a4.66,4.66,0,0,1,2.56.89c.14.1.34.2.2.41s-.17.54-.54.48c-1.16-.21-2.32-.41-3.48-.58-.31-.07-.31-.28-.31-.52a.4.4,0,0,1,.31-.44C123.63,536.72,124.07,536.65,124.51,536.55Z"/><path class="cls-2" d="M159.12,531.57a35,35,0,0,1-4,16.27c-1.94,3.95-4.12,7.77-6.1,11.73a36.22,36.22,0,0,0-1.87,5c-.55,1.74-1.78,2.73-3.41,2.42a2.64,2.64,0,0,1-2.22-3.34,24.45,24.45,0,0,1,1.81-5.52c2.42-4.91,5.15-9.68,7.5-14.63a24,24,0,0,0,1.57-18,24.2,24.2,0,1,0-44.73,18c2.38,4.87,5,9.65,7.43,14.52a28.16,28.16,0,0,1,1.84,5.25,2.77,2.77,0,0,1-2.25,3.68c-1.74.31-2.8-.61-3.38-2.55a25.34,25.34,0,0,0-1.77-4.67c-2.39-4.81-5.05-9.48-7.3-14.32a30.54,30.54,0,0,1-2.86-15.75A30.08,30.08,0,0,1,120.93,504c9.92-2.63,19.06-1,27,5.49A28.53,28.53,0,0,1,159.12,531.57Z"/><path class="cls-2" d="M112.58,520.9a13.57,13.57,0,0,1,6.37-5.11,1.53,1.53,0,0,1,2.15.72,1.51,1.51,0,0,1-1,2,11.25,11.25,0,0,0-6.61,7,14.17,14.17,0,0,0-.61,3.47c-.11,1-.65,1.61-1.5,1.61a1.45,1.45,0,0,1-1.5-1.61A13.46,13.46,0,0,1,112.58,520.9Z"/><path class="cls-2" d="M144.29,578.9H115.85a2.59,2.59,0,0,1-2.59-2.59h0a2.59,2.59,0,0,1,2.59-2.6h28.44a2.59,2.59,0,0,1,2.59,2.6h0a2.59,2.59,0,0,1-2.59,2.59Z"/><path class="cls-2" d="M144.22,589.36H115.78a2.59,2.59,0,0,1-2.59-2.59h0a2.59,2.59,0,0,1,2.59-2.59h28.44a2.59,2.59,0,0,1,2.59,2.59h0a2.59,2.59,0,0,1-2.59,2.59Z"/><path class="cls-2" d="M135.08,527H137a.75.75,0,0,1,.48.85c0,.62,0,1.26,0,1.88h2.15c.41,0,.54.13.58.54v2.42h1.91c.61,0,.92.28.92.89,0,2.35.1,4.74.14,7.09,0,3.14.06,6.24.06,9.38a1.07,1.07,0,0,1-1.16,1.19c-2.14,0-4.29,0-6.47,0a4,4,0,0,0-3.17,1.36,3.29,3.29,0,0,1-1.5,1,3.38,3.38,0,0,1-3.55-1,4.51,4.51,0,0,0-3.38-1.39c-2,0-4.09,0-6.13,0a1.25,1.25,0,0,1-1.33-.82v-5.08a.73.73,0,0,0,.07-.24l.2-11.46a.79.79,0,0,1,.65-.88h2v-2.35c0-.62.17-.82.79-.79,1.26,0,2.56,0,3.82,0a7.52,7.52,0,0,1,5,1.73,2.51,2.51,0,0,0,.48.38,5.86,5.86,0,0,1,4.57-4.6C134.5,527.14,134.77,527.07,135.08,527Zm-5.59,21.55c0-.21,0-.31,0-.45-.11-2.18-.21-4.36-.28-6.54a80.27,80.27,0,0,1,.28-8.63.67.67,0,0,0-.11-.37,6.41,6.41,0,0,0-4-1.81c-1.27-.07-2.53,0-3.75,0h-.79c0,5.38.1,10.7.14,16h3.34a9.49,9.49,0,0,1,1.67.14,7.4,7.4,0,0,1,3.58,1.64Zm6.61-4.71V528.4h-.95a4.85,4.85,0,0,0-4.23,2.53,2.69,2.69,0,0,0-.51,1.77,17.59,17.59,0,0,1,.17,1.91c.17,3.37.21,6.72.07,10.09,0,.55,0,1.06,0,1.6a6,6,0,0,1,5.45-2.42Zm4.16-10.29v.3c0,1.47.07,3,.11,4.44,0,3,.06,6,.06,9,0,.65-.24.89-.88.89-1.3,0-2.59,0-3.86,0a6.77,6.77,0,0,0-5.11,2.15c-.44.44-.82.44-1.3,0a6.48,6.48,0,0,0-4.6-2.08c-1.43,0-2.9,0-4.33,0-.68,0-.92-.24-.92-.92,0-2.66,0-5.28,0-7.94,0-1.37,0-2.7,0-4.06v-1.74h-1.74c.07,5.42.17,10.77.24,16.16h6.24a5.41,5.41,0,0,1,4.19,1.81,2.05,2.05,0,0,0,1.64.68,2.27,2.27,0,0,0,1.4-.72,5.23,5.23,0,0,1,4-1.7h6.41c.06-5.42.13-10.81.2-16.23-.58,0-1.16,0-1.81,0Zm-2.72-3v11c0,1,0,2-.07,3a.68.68,0,0,1-.65.65H136a5.31,5.31,0,0,0-3.95,1.12,4.6,4.6,0,0,0-1.5,2.12,1.43,1.43,0,0,1,.2-.14,7.53,7.53,0,0,1,4-1.43c1.29-.07,2.62,0,3.92,0H139c.06-5.42.13-10.81.23-16.23C138.69,530.62,138.15,530.62,137.54,530.62Z"/><path class="cls-2" d="M164.61,527.79h15.54a1.45,1.45,0,0,1,1.47,1.43v0h0a1.45,1.45,0,0,1-1.43,1.46H164.61a1.45,1.45,0,0,1-1.47-1.43v0h0a1.46,1.46,0,0,1,1.47-1.47Z"/><path class="cls-2" d="M78.69,527.86H94.24a1.45,1.45,0,0,1,1.46,1.43v0h0a1.45,1.45,0,0,1-1.43,1.47H78.69a1.45,1.45,0,0,1-1.47-1.43v0h0a1.42,1.42,0,0,1,1.4-1.46Z"/><path class="cls-2" d="M130.79,481.22v15.54a1.45,1.45,0,0,1-1.44,1.47h0a1.45,1.45,0,0,1-1.47-1.43V481.22a1.45,1.45,0,0,1,1.43-1.47h0a1.46,1.46,0,0,1,1.47,1.4Z"/><path class="cls-2" d="M97.17,498.61l7.16,7.5a1.23,1.23,0,0,1,0,1.77h0l-.34.31a1.25,1.25,0,0,1-1.77,0h0L95,500.65a1.24,1.24,0,0,1,0-1.77h0l.35-.31a1.21,1.21,0,0,1,1.7,0S97.17,498.57,97.17,498.61Z"/><path class="cls-2" d="M163.79,500.72l-7.33,7.33a1.28,1.28,0,0,1-1.78,0l-.3-.31a1.27,1.27,0,0,1,0-1.77l7.33-7.33a1.27,1.27,0,0,1,1.77,0l.31.31a1.18,1.18,0,0,1,0,1.7S163.82,500.69,163.79,500.72Z"/></svg>