<svg id="Layer_1" data-name="Layer 1" xmlns="http://www.w3.org/2000/svg" viewBox="0 0 562.23 318.16"><defs><style>.cls-1{fill:#011c7e;}.cls-2{fill:#fff;}</style></defs><circle class="cls-1" cx="235.02" cy="117.65" r="66.47"/><path class="cls-2" d="M264.71,110.89A28.58,28.58,0,0,0,253.6,88.8c-8-6.48-17.15-8.15-27-5.49a29.54,29.54,0,0,0-18.71,41.46c2.25,4.87,4.91,9.54,7.29,14.32a29,29,0,0,1,1.78,4.67c.54,1.91,1.67,2.83,3.37,2.56a2.78,2.78,0,0,0,2.25-3.69,24.08,24.08,0,0,0-1.84-5.25c-2.42-4.87-5-9.65-7.43-14.52A24,24,0,0,1,223.8,90.5a23.39,23.39,0,0,1,7-2.28,24.08,24.08,0,0,1,25.64,34.64c-2.35,4.94-5.08,9.72-7.5,14.63a24.45,24.45,0,0,0-1.81,5.52,2.65,2.65,0,0,0,2.22,3.34c1.57.27,2.86-.68,3.41-2.42a35.87,35.87,0,0,1,1.87-5c2-3.95,4.16-7.77,6.11-11.73A36.19,36.19,0,0,0,264.71,110.89Z"/><path class="cls-2" d="M229.87,118.87a4.43,4.43,0,0,1,2.66.82c.14.1.38.2.24.48s-.21.54-.62.47c-1.15-.2-2.28-.37-3.44-.58a.41.41,0,0,1-.34-.44h0c0-.24,0-.48.31-.55A6.43,6.43,0,0,0,229.87,118.87Z"/><path class="cls-2" d="M232.84,123c-.24.64-.28.71-1,.61-1-.14-1.94-.27-2.93-.44-.51-.11-.61-.28-.55-.75a.58.58,0,0,1,.21-.28A4,4,0,0,1,232.84,123Z"/><path class="cls-2" d="M230,112.87a4.17,4.17,0,0,1,2.56.89c.13.1.34.2.2.41s-.17.54-.54.47l-1.81-.27c-.61-.1-1.16-.24-1.7-.34-.35-.07-.28-.34-.28-.55a.41.41,0,0,1,.31-.41A7.36,7.36,0,0,0,230,112.87Z"/><path class="cls-2" d="M230,115.87a4.58,4.58,0,0,1,2.56.89c.13.1.34.2.2.41s-.17.54-.54.47c-1.16-.2-2.32-.41-3.48-.58-.31-.07-.31-.27-.31-.51a.39.39,0,0,1,.31-.44C229.15,116,229.6,116,230,115.87Z"/><path class="cls-2" d="M264.65,110.89a35,35,0,0,1-4,16.26c-1.94,4-4.12,7.78-6.1,11.73a36.85,36.85,0,0,0-1.87,5c-.55,1.74-1.78,2.73-3.41,2.42a2.64,2.64,0,0,1-2.22-3.34,24,24,0,0,1,1.81-5.52c2.42-4.91,5.14-9.69,7.5-14.63a24,24,0,0,0,1.57-18,24.21,24.21,0,1,0-44.74,18c2.39,4.87,5,9.64,7.44,14.52a28.16,28.16,0,0,1,1.84,5.25,2.77,2.77,0,0,1-2.25,3.68c-1.74.31-2.8-.61-3.38-2.56a25.62,25.62,0,0,0-1.77-4.67c-2.39-4.8-5-9.47-7.3-14.32A30.5,30.5,0,0,1,204.88,109c1.09-11.86,10.06-22.64,21.58-25.7,9.92-2.63,19.06-1,27,5.49A28.53,28.53,0,0,1,264.65,110.89Z"/><path class="cls-2" d="M218.11,100.22a13.57,13.57,0,0,1,6.37-5.11,1.51,1.51,0,1,1,1.16,2.76,11.21,11.21,0,0,0-6.61,6.95,14.25,14.25,0,0,0-.61,3.48c-.11,1-.65,1.6-1.5,1.6a1.44,1.44,0,0,1-1.51-1.6A13.47,13.47,0,0,1,218.11,100.22Z"/><path class="cls-2" d="M249.82,158.21H221.38a2.58,2.58,0,0,1-2.59-2.59h0a2.59,2.59,0,0,1,2.59-2.59h28.44a2.59,2.59,0,0,1,2.59,2.59h0a2.58,2.58,0,0,1-2.59,2.59Z"/><path class="cls-2" d="M249.75,168.68H221.31a2.59,2.59,0,0,1-2.59-2.59h0a2.59,2.59,0,0,1,2.59-2.59h28.44a2.59,2.59,0,0,1,2.59,2.59h0a2.59,2.59,0,0,1-2.59,2.59Z"/><path class="cls-2" d="M240.61,106.36h1.94a.76.76,0,0,1,.48.85c0,.61,0,1.26,0,1.88h2.15c.41,0,.54.13.58.54v2.42h1.91c.61,0,.92.27.92.89,0,2.35.1,4.74.13,7.09,0,3.14.07,6.24.07,9.38a1.07,1.07,0,0,1-1.16,1.19c-2.14,0-4.29,0-6.47,0A4,4,0,0,0,238,132a3.24,3.24,0,0,1-1.5,1,3.37,3.37,0,0,1-3.54-1,4.55,4.55,0,0,0-3.38-1.4c-2,0-4.09,0-6.13,0a1.24,1.24,0,0,1-1.33-.81v-5.08a.73.73,0,0,0,.07-.24l.2-11.46a.78.78,0,0,1,.65-.88h2v-2.36c0-.61.17-.82.79-.78l3.82,0a7.58,7.58,0,0,1,5,1.74,3,3,0,0,0,.48.38,5.89,5.89,0,0,1,4.57-4.61C240,106.46,240.3,106.39,240.61,106.36ZM235,127.9c0-.2,0-.3,0-.44-.1-2.18-.2-4.36-.27-6.54a82.84,82.84,0,0,1,.27-8.63.64.64,0,0,0-.1-.37,6.41,6.41,0,0,0-4-1.81c-1.27-.07-2.53,0-3.76,0h-.78c0,5.39.1,10.71.14,16.06h3.34a9.49,9.49,0,0,1,1.67.14A7.3,7.3,0,0,1,235,127.9Zm6.61-4.7V107.72h-.95a4.86,4.86,0,0,0-4.23,2.52,2.74,2.74,0,0,0-.51,1.78,17.59,17.59,0,0,1,.17,1.91c.17,3.37.2,6.71.07,10.09,0,.54,0,1.06,0,1.6a5.9,5.9,0,0,1,5.45-2.42Zm4.16-10.3v.31c0,1.47.07,3,.1,4.43,0,3,.07,6,.07,9,0,.65-.24.88-.88.88-1.3,0-2.59,0-3.86,0a6.7,6.7,0,0,0-5.11,2.15c-.44.44-.82.44-1.3,0a6.48,6.48,0,0,0-4.6-2.08c-1.43,0-2.9,0-4.33,0-.68,0-.92-.24-.92-.92,0-2.66,0-5.29,0-8,0-1.36,0-2.69,0-4v-1.74h-1.74c.07,5.42.17,10.77.24,16.16h6.24a5.37,5.37,0,0,1,4.19,1.81,2,2,0,0,0,1.64.68,2.27,2.27,0,0,0,1.4-.72,5.23,5.23,0,0,1,4-1.7h6.4c.07-5.42.14-10.81.21-16.23-.58,0-1.16,0-1.81,0Zm-2.73-3v11c0,1,0,2-.06,3a.67.67,0,0,1-.65.64h-.82a5.3,5.3,0,0,0-3.95,1.13,4.52,4.52,0,0,0-1.5,2.11c.06,0,.13-.1.2-.13a7.54,7.54,0,0,1,4-1.44c1.29-.06,2.62,0,3.92,0h.41c.06-5.42.13-10.81.23-16.23C244.22,109.94,243.68,109.94,243.06,109.94Z"/><path class="cls-2" d="M270.14,107.11h15.54a1.45,1.45,0,0,1,1.47,1.43v0h0a1.45,1.45,0,0,1-1.43,1.47H270.14a1.45,1.45,0,0,1-1.47-1.43v0h0a1.46,1.46,0,0,1,1.47-1.46Z"/><path class="cls-2" d="M184.22,107.18h15.55a1.44,1.44,0,0,1,1.46,1.43v0h0a1.45,1.45,0,0,1-1.43,1.47H184.22a1.45,1.45,0,0,1-1.47-1.43v0h0a1.42,1.42,0,0,1,1.4-1.46Z"/><path class="cls-2" d="M236.31,60.54V76.08a1.45,1.45,0,0,1-1.43,1.47h0a1.45,1.45,0,0,1-1.47-1.43V60.54a1.45,1.45,0,0,1,1.43-1.47h0a1.44,1.44,0,0,1,1.46,1.4Z"/><path class="cls-2" d="M202.7,77.92l7.16,7.5a1.26,1.26,0,0,1,0,1.78h0l-.34.3a1.24,1.24,0,0,1-1.77,0h0L200.55,80a1.24,1.24,0,0,1,0-1.77h0l.35-.31a1.21,1.21,0,0,1,1.7,0S202.7,77.89,202.7,77.92Z"/><path class="cls-2" d="M269.32,80,262,87.37a1.3,1.3,0,0,1-1.78,0l-.3-.31a1.27,1.27,0,0,1,0-1.77L267.24,78A1.27,1.27,0,0,1,269,78l.31.3a1.2,1.2,0,0,1,0,1.71S269.35,80,269.32,80Z"/></svg>