<svg xmlns="http://www.w3.org/2000/svg" xmlns:xlink="http://www.w3.org/1999/xlink" width="500" zoomAndPan="magnify" viewBox="0 0 375 374.999991" height="500" preserveAspectRatio="xMidYMid meet" version="1.0"><defs><clipPath id="id1"><path d="M 78 271 L 297 271 L 297 375 L 78 375 Z M 78 271 " clip-rule="nonzero"/></clipPath><clipPath id="id2"><path d="M 375.058594 187.558594 C 375.058594 291.117188 291.117188 375.058594 187.558594 375.058594 C 84 375.058594 0.0585938 291.117188 0.0585938 187.558594 C 0.0546875 84 84 0.0585938 187.558594 0.0585938 C 291.117188 0.0546875 375.058594 84 375.058594 187.558594 Z M 375.058594 187.558594 " clip-rule="nonzero"/></clipPath><clipPath id="id3"><path d="M 127.148438 271 L 247.730469 271 L 247.730469 342 L 127.148438 342 Z M 127.148438 271 " clip-rule="nonzero"/></clipPath><clipPath id="id4"><path d="M 375.058594 187.558594 C 375.058594 291.117188 291.117188 375.058594 187.558594 375.058594 C 84 375.058594 0.0585938 291.117188 0.0585938 187.558594 C 0.0546875 84 84 0.0585938 187.558594 0.0585938 C 291.117188 0.0546875 375.058594 84 375.058594 187.558594 Z M 375.058594 187.558594 " clip-rule="nonzero"/></clipPath><clipPath id="id5"><path d="M 160.578125 216.691406 L 214.304688 216.691406 L 214.304688 318 L 160.578125 318 Z M 160.578125 216.691406 " clip-rule="nonzero"/></clipPath><clipPath id="id6"><path d="M 375.058594 187.558594 C 375.058594 291.117188 291.117188 375.058594 187.558594 375.058594 C 84 375.058594 0.0585938 291.117188 0.0585938 187.558594 C 0.0546875 84 84 0.0585938 187.558594 0.0585938 C 291.117188 0.0546875 375.058594 84 375.058594 187.558594 Z M 375.058594 187.558594 " clip-rule="nonzero"/></clipPath><clipPath id="id7"><path d="M 160.578125 216.691406 L 214.304688 216.691406 L 214.304688 276 L 160.578125 276 Z M 160.578125 216.691406 " clip-rule="nonzero"/></clipPath><clipPath id="id8"><path d="M 375.058594 187.558594 C 375.058594 291.117188 291.117188 375.058594 187.558594 375.058594 C 84 375.058594 0.0585938 291.117188 0.0585938 187.558594 C 0.0546875 84 84 0.0585938 187.558594 0.0585938 C 291.117188 0.0546875 375.058594 84 375.058594 187.558594 Z M 375.058594 187.558594 " clip-rule="nonzero"/></clipPath><clipPath id="id9"><path d="M 249 173 L 278 173 L 278 221 L 249 221 Z M 249 173 " clip-rule="nonzero"/></clipPath><clipPath id="id10"><path d="M 375.058594 187.558594 C 375.058594 291.117188 291.117188 375.058594 187.558594 375.058594 C 84 375.058594 0.0585938 291.117188 0.0585938 187.558594 C 0.0546875 84 84 0.0585938 187.558594 0.0585938 C 291.117188 0.0546875 375.058594 84 375.058594 187.558594 Z M 375.058594 187.558594 " clip-rule="nonzero"/></clipPath><clipPath id="id11"><path d="M 246.539062 181 L 271 181 L 271 215.496094 L 246.539062 215.496094 Z M 246.539062 181 " clip-rule="nonzero"/></clipPath><clipPath id="id12"><path d="M 375.058594 187.558594 C 375.058594 291.117188 291.117188 375.058594 187.558594 375.058594 C 84 375.058594 0.0585938 291.117188 0.0585938 187.558594 C 0.0546875 84 84 0.0585938 187.558594 0.0585938 C 291.117188 0.0546875 375.058594 84 375.058594 187.558594 Z M 375.058594 187.558594 " clip-rule="nonzero"/></clipPath><clipPath id="id13"><path d="M 100 173 L 129 173 L 129 221 L 100 221 Z M 100 173 " clip-rule="nonzero"/></clipPath><clipPath id="id14"><path d="M 375.058594 187.558594 C 375.058594 291.117188 291.117188 375.058594 187.558594 375.058594 C 84 375.058594 0.0585938 291.117188 0.0585938 187.558594 C 0.0546875 84 84 0.0585938 187.558594 0.0585938 C 291.117188 0.0546875 375.058594 84 375.058594 187.558594 Z M 375.058594 187.558594 " clip-rule="nonzero"/></clipPath><clipPath id="id15"><path d="M 107 181 L 131.925781 181 L 131.925781 215.496094 L 107 215.496094 Z M 107 181 " clip-rule="nonzero"/></clipPath><clipPath id="id16"><path d="M 375.058594 187.558594 C 375.058594 291.117188 291.117188 375.058594 187.558594 375.058594 C 84 375.058594 0.0585938 291.117188 0.0585938 187.558594 C 0.0546875 84 84 0.0585938 187.558594 0.0585938 C 291.117188 0.0546875 375.058594 84 375.058594 187.558594 Z M 375.058594 187.558594 " clip-rule="nonzero"/></clipPath><clipPath id="id17"><path d="M 113 90.136719 L 265 90.136719 L 265 268 L 113 268 Z M 113 90.136719 " clip-rule="nonzero"/></clipPath><clipPath id="id18"><path d="M 375.058594 187.558594 C 375.058594 291.117188 291.117188 375.058594 187.558594 375.058594 C 84 375.058594 0.0585938 291.117188 0.0585938 187.558594 C 0.0546875 84 84 0.0585938 187.558594 0.0585938 C 291.117188 0.0546875 375.058594 84 375.058594 187.558594 Z M 375.058594 187.558594 " clip-rule="nonzero"/></clipPath><clipPath id="id19"><path d="M 187 85.363281 L 271.609375 85.363281 L 271.609375 159 L 187 159 Z M 187 85.363281 " clip-rule="nonzero"/></clipPath><clipPath id="id20"><path d="M 375.058594 187.558594 C 375.058594 291.117188 291.117188 375.058594 187.558594 375.058594 C 84 375.058594 0.0585938 291.117188 0.0585938 187.558594 C 0.0546875 84 84 0.0585938 187.558594 0.0585938 C 291.117188 0.0546875 375.058594 84 375.058594 187.558594 Z M 375.058594 187.558594 " clip-rule="nonzero"/></clipPath><clipPath id="id21"><path d="M 112 72.230469 L 198.78125 72.230469 L 198.78125 158 L 112 158 Z M 112 72.230469 " clip-rule="nonzero"/></clipPath><clipPath id="id22"><path d="M 375.058594 187.558594 C 375.058594 291.117188 291.117188 375.058594 187.558594 375.058594 C 84 375.058594 0.0585938 291.117188 0.0585938 187.558594 C 0.0546875 84 84 0.0585938 187.558594 0.0585938 C 291.117188 0.0546875 375.058594 84 375.058594 187.558594 Z M 375.058594 187.558594 " clip-rule="nonzero"/></clipPath><clipPath id="id23"><path d="M 106 55.515625 L 272.804688 55.515625 L 272.804688 173.710938 L 106 173.710938 Z M 106 55.515625 " clip-rule="nonzero"/></clipPath><clipPath id="id24"><path d="M 375.058594 187.558594 C 375.058594 291.117188 291.117188 375.058594 187.558594 375.058594 C 84 375.058594 0.0585938 291.117188 0.0585938 187.558594 C 0.0546875 84 84 0.0585938 187.558594 0.0585938 C 291.117188 0.0546875 375.058594 84 375.058594 187.558594 Z M 375.058594 187.558594 " clip-rule="nonzero"/></clipPath><clipPath id="id25"><path d="M 239.375 167 L 271.609375 167 L 271.609375 209 L 239.375 209 Z M 239.375 167 " clip-rule="nonzero"/></clipPath><clipPath id="id26"><path d="M 375.058594 187.558594 C 375.058594 291.117188 291.117188 375.058594 187.558594 375.058594 C 84 375.058594 0.0585938 291.117188 0.0585938 187.558594 C 0.0546875 84 84 0.0585938 187.558594 0.0585938 C 291.117188 0.0546875 375.058594 84 375.058594 187.558594 Z M 375.058594 187.558594 " clip-rule="nonzero"/></clipPath><clipPath id="id27"><path d="M 107 164.160156 L 140 164.160156 L 140 209.527344 L 107 209.527344 Z M 107 164.160156 " clip-rule="nonzero"/></clipPath><clipPath id="id28"><path d="M 375.058594 187.558594 C 375.058594 291.117188 291.117188 375.058594 187.558594 375.058594 C 84 375.058594 0.0585938 291.117188 0.0585938 187.558594 C 0.0546875 84 84 0.0585938 187.558594 0.0585938 C 291.117188 0.0546875 375.058594 84 375.058594 187.558594 Z M 375.058594 187.558594 " clip-rule="nonzero"/></clipPath><clipPath id="id29"><path d="M 134 198 L 245.34375 198 L 245.34375 270 L 134 270 Z M 134 198 " clip-rule="nonzero"/></clipPath><clipPath id="id30"><path d="M 375.058594 187.558594 C 375.058594 291.117188 291.117188 375.058594 187.558594 375.058594 C 84 375.058594 0.0585938 291.117188 0.0585938 187.558594 C 0.0546875 84 84 0.0585938 187.558594 0.0585938 C 291.117188 0.0546875 375.058594 84 375.058594 187.558594 Z M 375.058594 187.558594 " clip-rule="nonzero"/></clipPath></defs><path fill="#78d1cc" d="M 375.058594 187.558594 C 375.058594 291.117188 291.117188 375.058594 187.558594 375.058594 C 84 375.058594 0.0585938 291.117188 0.0585938 187.558594 C 0.0546875 84 84 0.0585938 187.558594 0.0585938 C 291.117188 0.0546875 375.058594 84 375.058594 187.558594 " fill-opacity="1" fill-rule="nonzero"/><g clip-path="url(#id1)"><g clip-path="url(#id2)"><path fill="#36ab9c" d="M 296.945312 375.574219 C 287.679688 382.496094 277.722656 388.5625 267.203125 393.636719 C 265.605469 394.414062 263.992188 395.152344 262.378906 395.882812 C 239.53125 406.125 214.21875 411.820312 187.558594 411.820312 C 160.898438 411.820312 135.589844 406.125 112.75 395.882812 C 111.113281 395.152344 109.503906 394.414062 107.914062 393.636719 C 97.398438 388.550781 87.441406 382.496094 78.175781 375.574219 C 79.800781 339.328125 99.058594 307.664062 127.578125 288.96875 C 144.804688 277.664062 165.414062 271.097656 187.558594 271.097656 C 190.9375 271.097656 194.28125 271.25 197.5625 271.550781 C 215.914062 273.210938 232.9375 279.382812 247.539062 288.96875 C 260.671875 297.578125 271.835938 308.929688 280.21875 322.207031 C 290.054688 337.785156 296.058594 356.015625 296.945312 375.574219 " fill-opacity="1" fill-rule="nonzero"/></g></g><g clip-path="url(#id3)"><g clip-path="url(#id4)"><path fill="#36ab9c" d="M 247.539062 288.96875 C 245.867188 301.613281 240.292969 313.039062 232.042969 321.96875 C 220.988281 333.941406 205.15625 341.453125 187.558594 341.453125 C 159.371094 341.453125 135.683594 322.171875 128.964844 296.070312 C 128.367188 293.757812 127.902344 291.378906 127.578125 288.96875 C 144.804688 277.664062 165.414062 271.097656 187.558594 271.097656 C 190.9375 271.097656 194.28125 271.238281 197.578125 271.550781 C 198.148438 271.597656 198.722656 271.65625 199.285156 271.714844 C 199.640625 271.753906 200 271.789062 200.347656 271.835938 C 200.738281 271.871094 201.132812 271.933594 201.515625 271.980469 C 201.753906 272.003906 202.003906 272.039062 202.246094 272.074219 C 202.589844 272.109375 202.949219 272.171875 203.308594 272.21875 C 203.582031 272.253906 203.855469 272.300781 204.144531 272.335938 C 204.382812 272.375 204.621094 272.410156 204.859375 272.457031 C 205.265625 272.515625 205.660156 272.589844 206.066406 272.648438 C 207.808594 272.945312 209.539062 273.28125 211.246094 273.664062 L 212.390625 273.914062 C 212.605469 273.972656 212.835938 274.019531 213.050781 274.082031 C 213.457031 274.175781 213.871094 274.273438 214.265625 274.378906 C 214.339844 274.390625 214.398438 274.402344 214.445312 274.414062 C 214.960938 274.546875 215.472656 274.675781 215.972656 274.820312 C 216.523438 274.953125 217.0625 275.105469 217.585938 275.261719 C 218.195312 275.429688 218.792969 275.609375 219.402344 275.789062 C 219.867188 275.929688 220.332031 276.074219 220.796875 276.230469 C 221.097656 276.324219 221.40625 276.421875 221.691406 276.515625 C 222.183594 276.671875 222.671875 276.839844 223.148438 277.003906 C 223.746094 277.207031 224.332031 277.410156 224.917969 277.625 C 224.964844 277.648438 225 277.664062 225.035156 277.675781 C 225.644531 277.890625 226.242188 278.117188 226.839844 278.34375 C 227.28125 278.523438 227.734375 278.6875 228.1875 278.878906 C 229.371094 279.347656 230.527344 279.835938 231.671875 280.335938 L 233.179688 281.015625 C 233.632812 281.21875 234.085938 281.433594 234.539062 281.648438 C 234.957031 281.851562 235.363281 282.042969 235.769531 282.246094 C 236.152344 282.425781 236.519531 282.617188 236.890625 282.808594 C 237.128906 282.925781 237.378906 283.046875 237.621094 283.179688 C 238.609375 283.679688 239.578125 284.203125 240.53125 284.730469 C 240.878906 284.921875 241.238281 285.125 241.570312 285.316406 C 241.796875 285.445312 242.011719 285.566406 242.226562 285.683594 L 243.039062 286.164062 L 243.863281 286.664062 L 244.402344 286.988281 C 244.914062 287.285156 245.414062 287.59375 245.917969 287.917969 C 246.464844 288.265625 247.003906 288.609375 247.539062 288.96875 " fill-opacity="1" fill-rule="nonzero"/></g></g><g clip-path="url(#id5)"><g clip-path="url(#id6)"><path fill="#36ab9c" d="M 214.21875 241.070312 L 214.21875 293.515625 C 214.21875 306.78125 203.367188 317.644531 190.101562 317.644531 L 185.015625 317.644531 C 171.753906 317.644531 160.914062 306.78125 160.914062 293.515625 L 160.914062 241.070312 C 160.914062 227.804688 171.753906 216.964844 185.015625 216.964844 L 190.101562 216.964844 C 203.367188 216.964844 214.21875 227.804688 214.21875 241.070312 " fill-opacity="1" fill-rule="nonzero"/></g></g><g clip-path="url(#id7)"><g clip-path="url(#id8)"><path fill="#f8a29e" d="M 214.21875 241.070312 L 214.21875 268.828125 C 206.292969 273.234375 197.886719 275.789062 189.351562 275.789062 C 179.285156 275.789062 169.6875 272.996094 160.914062 268.109375 L 160.914062 241.070312 C 160.914062 227.804688 171.753906 216.964844 185.015625 216.964844 L 190.101562 216.964844 C 203.367188 216.964844 214.21875 227.804688 214.21875 241.070312 " fill-opacity="1" fill-rule="nonzero"/></g></g><g clip-path="url(#id9)"><g clip-path="url(#id10)"><path fill="#fbd5c0" d="M 252.566406 220.84375 C 252.566406 220.84375 265.054688 216.59375 273.03125 202.675781 C 281.699219 187.558594 276.253906 178.140625 274.535156 176.097656 C 269.84375 170.523438 262.59375 174.105469 261.402344 176.097656 C 260.207031 178.09375 242.921875 209.492188 252.566406 220.84375 " fill-opacity="1" fill-rule="nonzero"/></g></g><g clip-path="url(#id11)"><g clip-path="url(#id12)"><path fill="#f8a29e" d="M 264.804688 181.054688 C 264.804688 181.054688 272.730469 182.066406 269.949219 193.207031 C 267.15625 204.359375 259.835938 208.761719 249.878906 214.457031 C 239.933594 220.152344 254.859375 183.320312 264.804688 181.054688 " fill-opacity="1" fill-rule="nonzero"/></g></g><g clip-path="url(#id13)"><g clip-path="url(#id14)"><path fill="#fbd5c0" d="M 125.800781 220.84375 C 125.800781 220.84375 113.3125 216.59375 105.335938 202.675781 C 96.65625 187.558594 102.101562 178.140625 103.820312 176.097656 C 108.511719 170.523438 115.757812 174.105469 116.953125 176.097656 C 118.148438 178.09375 135.445312 209.492188 125.800781 220.84375 " fill-opacity="1" fill-rule="nonzero"/></g></g><g clip-path="url(#id15)"><g clip-path="url(#id16)"><path fill="#f8a29e" d="M 113.550781 181.054688 C 113.550781 181.054688 105.636719 182.066406 108.417969 193.207031 C 111.199219 204.359375 118.527344 208.761719 128.472656 214.457031 C 138.429688 220.152344 123.507812 183.320312 113.550781 181.054688 " fill-opacity="1" fill-rule="nonzero"/></g></g><g clip-path="url(#id17)"><g clip-path="url(#id18)"><path fill="#fbd5c0" d="M 264.804688 173.699219 C 264.804688 127.9375 231.027344 90.832031 189.351562 90.832031 C 147.683594 90.832031 113.886719 127.9375 113.886719 173.699219 C 113.886719 219.460938 147.683594 267.300781 189.351562 267.300781 C 228.511719 267.300781 264.804688 219.078125 264.804688 173.699219 " fill-opacity="1" fill-rule="nonzero"/></g></g><g clip-path="url(#id19)"><g clip-path="url(#id20)"><path fill="#351f16" d="M 194.542969 114.410156 C 194.542969 114.410156 216.929688 161.378906 270.320312 156.851562 C 270.320312 156.851562 273.054688 167.945312 269.902344 138.632812 C 266.34375 105.597656 237.082031 77.804688 189.351562 87.75 C 189.351562 87.75 183.40625 85.363281 194.542969 114.410156 " fill-opacity="1" fill-rule="nonzero"/></g></g><g clip-path="url(#id21)"><g clip-path="url(#id22)"><path fill="#351f16" d="M 198.53125 90.832031 C 198.53125 90.832031 200.511719 82.1875 193.351562 75.417969 C 186.1875 68.648438 93.445312 66.65625 116.011719 157.808594 C 116.011719 157.808594 160.578125 149.058594 194.542969 114.410156 L 198.53125 90.832031 " fill-opacity="1" fill-rule="nonzero"/></g></g><g clip-path="url(#id23)"><g clip-path="url(#id24)"><path fill="#36ab9c" d="M 189.625 55.933594 C 189.625 55.933594 92.371094 55.132812 108.679688 173.699219 L 113.886719 173.699219 C 113.886719 173.699219 123.03125 114.898438 190.425781 114.828125 C 257.820312 114.898438 264.804688 173.699219 264.804688 173.699219 L 270.582031 173.699219 C 286.890625 55.132812 189.625 55.933594 189.625 55.933594 " fill-opacity="1" fill-rule="nonzero"/></g></g><g clip-path="url(#id25)"><g clip-path="url(#id26)"><path fill="#ffffff" d="M 271.324219 167.695312 L 239.769531 202.375 L 239.433594 208.75 L 270.582031 173.699219 L 271.324219 167.695312 " fill-opacity="1" fill-rule="nonzero"/></g></g><g clip-path="url(#id27)"><g clip-path="url(#id28)"><path fill="#ffffff" d="M 107.617188 164.503906 L 139.480469 202.375 L 139.863281 209.457031 L 108.679688 173.699219 L 107.617188 164.503906 " fill-opacity="1" fill-rule="nonzero"/></g></g><g clip-path="url(#id29)"><g clip-path="url(#id30)"><path fill="#36ab9c" d="M 189.625 198.054688 L 134.109375 203.664062 C 134.109375 203.664062 136.246094 241.761719 143.996094 251.0625 C 151.910156 260.566406 177.421875 269.9375 189.769531 269.734375 C 202.207031 269.53125 227.351562 259.097656 235.195312 249.4375 C 242.574219 240.351562 245.140625 203.664062 245.140625 203.664062 L 189.625 198.054688 " fill-opacity="1" fill-rule="nonzero"/></g></g></svg>